G04 #@! TF.GenerationSoftware,KiCad,Pcbnew,(5.1.9)-1*
G04 #@! TF.CreationDate,2021-03-27T20:38:15-07:00*
G04 #@! TF.ProjectId,attiny_arduino_serial,61747469-6e79-45f6-9172-6475696e6f5f,rev?*
G04 #@! TF.SameCoordinates,Original*
G04 #@! TF.FileFunction,Soldermask,Top*
G04 #@! TF.FilePolarity,Negative*
%FSLAX46Y46*%
G04 Gerber Fmt 4.6, Leading zero omitted, Abs format (unit mm)*
G04 Created by KiCad (PCBNEW (5.1.9)-1) date 2021-03-27 20:38:15*
%MOMM*%
%LPD*%
G01*
G04 APERTURE LIST*
%ADD10R,1.200000X0.900000*%
%ADD11R,2.100000X1.800000*%
%ADD12R,1.000000X1.500000*%
%ADD13O,1.700000X1.700000*%
%ADD14R,1.700000X1.700000*%
%ADD15R,1.200000X1.900000*%
%ADD16O,1.200000X1.900000*%
%ADD17R,1.500000X1.900000*%
%ADD18C,1.450000*%
%ADD19R,0.400000X1.350000*%
G04 APERTURE END LIST*
G04 #@! TO.C,R4*
G36*
G01*
X104375000Y-53397999D02*
X104375000Y-54298001D01*
G75*
G02*
X104125001Y-54548000I-249999J0D01*
G01*
X103424999Y-54548000D01*
G75*
G02*
X103175000Y-54298001I0J249999D01*
G01*
X103175000Y-53397999D01*
G75*
G02*
X103424999Y-53148000I249999J0D01*
G01*
X104125001Y-53148000D01*
G75*
G02*
X104375000Y-53397999I0J-249999D01*
G01*
G37*
G36*
G01*
X106375000Y-53397999D02*
X106375000Y-54298001D01*
G75*
G02*
X106125001Y-54548000I-249999J0D01*
G01*
X105424999Y-54548000D01*
G75*
G02*
X105175000Y-54298001I0J249999D01*
G01*
X105175000Y-53397999D01*
G75*
G02*
X105424999Y-53148000I249999J0D01*
G01*
X106125001Y-53148000D01*
G75*
G02*
X106375000Y-53397999I0J-249999D01*
G01*
G37*
G04 #@! TD*
D10*
G04 #@! TO.C,D1*
X105918000Y-36450000D03*
X105918000Y-39750000D03*
G04 #@! TD*
D11*
G04 #@! TO.C,Y1*
X97610000Y-37585000D03*
X100510000Y-37585000D03*
X100510000Y-39885000D03*
X97610000Y-39885000D03*
G04 #@! TD*
G04 #@! TO.C,U2*
G36*
G01*
X97385000Y-43330000D02*
X97385000Y-43030000D01*
G75*
G02*
X97535000Y-42880000I150000J0D01*
G01*
X99185000Y-42880000D01*
G75*
G02*
X99335000Y-43030000I0J-150000D01*
G01*
X99335000Y-43330000D01*
G75*
G02*
X99185000Y-43480000I-150000J0D01*
G01*
X97535000Y-43480000D01*
G75*
G02*
X97385000Y-43330000I0J150000D01*
G01*
G37*
G36*
G01*
X97385000Y-44600000D02*
X97385000Y-44300000D01*
G75*
G02*
X97535000Y-44150000I150000J0D01*
G01*
X99185000Y-44150000D01*
G75*
G02*
X99335000Y-44300000I0J-150000D01*
G01*
X99335000Y-44600000D01*
G75*
G02*
X99185000Y-44750000I-150000J0D01*
G01*
X97535000Y-44750000D01*
G75*
G02*
X97385000Y-44600000I0J150000D01*
G01*
G37*
G36*
G01*
X97385000Y-45870000D02*
X97385000Y-45570000D01*
G75*
G02*
X97535000Y-45420000I150000J0D01*
G01*
X99185000Y-45420000D01*
G75*
G02*
X99335000Y-45570000I0J-150000D01*
G01*
X99335000Y-45870000D01*
G75*
G02*
X99185000Y-46020000I-150000J0D01*
G01*
X97535000Y-46020000D01*
G75*
G02*
X97385000Y-45870000I0J150000D01*
G01*
G37*
G36*
G01*
X97385000Y-47140000D02*
X97385000Y-46840000D01*
G75*
G02*
X97535000Y-46690000I150000J0D01*
G01*
X99185000Y-46690000D01*
G75*
G02*
X99335000Y-46840000I0J-150000D01*
G01*
X99335000Y-47140000D01*
G75*
G02*
X99185000Y-47290000I-150000J0D01*
G01*
X97535000Y-47290000D01*
G75*
G02*
X97385000Y-47140000I0J150000D01*
G01*
G37*
G36*
G01*
X97385000Y-48410000D02*
X97385000Y-48110000D01*
G75*
G02*
X97535000Y-47960000I150000J0D01*
G01*
X99185000Y-47960000D01*
G75*
G02*
X99335000Y-48110000I0J-150000D01*
G01*
X99335000Y-48410000D01*
G75*
G02*
X99185000Y-48560000I-150000J0D01*
G01*
X97535000Y-48560000D01*
G75*
G02*
X97385000Y-48410000I0J150000D01*
G01*
G37*
G36*
G01*
X97385000Y-49680000D02*
X97385000Y-49380000D01*
G75*
G02*
X97535000Y-49230000I150000J0D01*
G01*
X99185000Y-49230000D01*
G75*
G02*
X99335000Y-49380000I0J-150000D01*
G01*
X99335000Y-49680000D01*
G75*
G02*
X99185000Y-49830000I-150000J0D01*
G01*
X97535000Y-49830000D01*
G75*
G02*
X97385000Y-49680000I0J150000D01*
G01*
G37*
G36*
G01*
X97385000Y-50950000D02*
X97385000Y-50650000D01*
G75*
G02*
X97535000Y-50500000I150000J0D01*
G01*
X99185000Y-50500000D01*
G75*
G02*
X99335000Y-50650000I0J-150000D01*
G01*
X99335000Y-50950000D01*
G75*
G02*
X99185000Y-51100000I-150000J0D01*
G01*
X97535000Y-51100000D01*
G75*
G02*
X97385000Y-50950000I0J150000D01*
G01*
G37*
G36*
G01*
X92435000Y-50950000D02*
X92435000Y-50650000D01*
G75*
G02*
X92585000Y-50500000I150000J0D01*
G01*
X94235000Y-50500000D01*
G75*
G02*
X94385000Y-50650000I0J-150000D01*
G01*
X94385000Y-50950000D01*
G75*
G02*
X94235000Y-51100000I-150000J0D01*
G01*
X92585000Y-51100000D01*
G75*
G02*
X92435000Y-50950000I0J150000D01*
G01*
G37*
G36*
G01*
X92435000Y-49680000D02*
X92435000Y-49380000D01*
G75*
G02*
X92585000Y-49230000I150000J0D01*
G01*
X94235000Y-49230000D01*
G75*
G02*
X94385000Y-49380000I0J-150000D01*
G01*
X94385000Y-49680000D01*
G75*
G02*
X94235000Y-49830000I-150000J0D01*
G01*
X92585000Y-49830000D01*
G75*
G02*
X92435000Y-49680000I0J150000D01*
G01*
G37*
G36*
G01*
X92435000Y-48410000D02*
X92435000Y-48110000D01*
G75*
G02*
X92585000Y-47960000I150000J0D01*
G01*
X94235000Y-47960000D01*
G75*
G02*
X94385000Y-48110000I0J-150000D01*
G01*
X94385000Y-48410000D01*
G75*
G02*
X94235000Y-48560000I-150000J0D01*
G01*
X92585000Y-48560000D01*
G75*
G02*
X92435000Y-48410000I0J150000D01*
G01*
G37*
G36*
G01*
X92435000Y-47140000D02*
X92435000Y-46840000D01*
G75*
G02*
X92585000Y-46690000I150000J0D01*
G01*
X94235000Y-46690000D01*
G75*
G02*
X94385000Y-46840000I0J-150000D01*
G01*
X94385000Y-47140000D01*
G75*
G02*
X94235000Y-47290000I-150000J0D01*
G01*
X92585000Y-47290000D01*
G75*
G02*
X92435000Y-47140000I0J150000D01*
G01*
G37*
G36*
G01*
X92435000Y-45870000D02*
X92435000Y-45570000D01*
G75*
G02*
X92585000Y-45420000I150000J0D01*
G01*
X94235000Y-45420000D01*
G75*
G02*
X94385000Y-45570000I0J-150000D01*
G01*
X94385000Y-45870000D01*
G75*
G02*
X94235000Y-46020000I-150000J0D01*
G01*
X92585000Y-46020000D01*
G75*
G02*
X92435000Y-45870000I0J150000D01*
G01*
G37*
G36*
G01*
X92435000Y-44600000D02*
X92435000Y-44300000D01*
G75*
G02*
X92585000Y-44150000I150000J0D01*
G01*
X94235000Y-44150000D01*
G75*
G02*
X94385000Y-44300000I0J-150000D01*
G01*
X94385000Y-44600000D01*
G75*
G02*
X94235000Y-44750000I-150000J0D01*
G01*
X92585000Y-44750000D01*
G75*
G02*
X92435000Y-44600000I0J150000D01*
G01*
G37*
G36*
G01*
X92435000Y-43330000D02*
X92435000Y-43030000D01*
G75*
G02*
X92585000Y-42880000I150000J0D01*
G01*
X94235000Y-42880000D01*
G75*
G02*
X94385000Y-43030000I0J-150000D01*
G01*
X94385000Y-43330000D01*
G75*
G02*
X94235000Y-43480000I-150000J0D01*
G01*
X92585000Y-43480000D01*
G75*
G02*
X92435000Y-43330000I0J150000D01*
G01*
G37*
G04 #@! TD*
G04 #@! TO.C,U1*
G36*
G01*
X94835000Y-30250000D02*
X94535000Y-30250000D01*
G75*
G02*
X94385000Y-30100000I0J150000D01*
G01*
X94385000Y-28450000D01*
G75*
G02*
X94535000Y-28300000I150000J0D01*
G01*
X94835000Y-28300000D01*
G75*
G02*
X94985000Y-28450000I0J-150000D01*
G01*
X94985000Y-30100000D01*
G75*
G02*
X94835000Y-30250000I-150000J0D01*
G01*
G37*
G36*
G01*
X96105000Y-30250000D02*
X95805000Y-30250000D01*
G75*
G02*
X95655000Y-30100000I0J150000D01*
G01*
X95655000Y-28450000D01*
G75*
G02*
X95805000Y-28300000I150000J0D01*
G01*
X96105000Y-28300000D01*
G75*
G02*
X96255000Y-28450000I0J-150000D01*
G01*
X96255000Y-30100000D01*
G75*
G02*
X96105000Y-30250000I-150000J0D01*
G01*
G37*
G36*
G01*
X97375000Y-30250000D02*
X97075000Y-30250000D01*
G75*
G02*
X96925000Y-30100000I0J150000D01*
G01*
X96925000Y-28450000D01*
G75*
G02*
X97075000Y-28300000I150000J0D01*
G01*
X97375000Y-28300000D01*
G75*
G02*
X97525000Y-28450000I0J-150000D01*
G01*
X97525000Y-30100000D01*
G75*
G02*
X97375000Y-30250000I-150000J0D01*
G01*
G37*
G36*
G01*
X98645000Y-30250000D02*
X98345000Y-30250000D01*
G75*
G02*
X98195000Y-30100000I0J150000D01*
G01*
X98195000Y-28450000D01*
G75*
G02*
X98345000Y-28300000I150000J0D01*
G01*
X98645000Y-28300000D01*
G75*
G02*
X98795000Y-28450000I0J-150000D01*
G01*
X98795000Y-30100000D01*
G75*
G02*
X98645000Y-30250000I-150000J0D01*
G01*
G37*
G36*
G01*
X99915000Y-30250000D02*
X99615000Y-30250000D01*
G75*
G02*
X99465000Y-30100000I0J150000D01*
G01*
X99465000Y-28450000D01*
G75*
G02*
X99615000Y-28300000I150000J0D01*
G01*
X99915000Y-28300000D01*
G75*
G02*
X100065000Y-28450000I0J-150000D01*
G01*
X100065000Y-30100000D01*
G75*
G02*
X99915000Y-30250000I-150000J0D01*
G01*
G37*
G36*
G01*
X101185000Y-30250000D02*
X100885000Y-30250000D01*
G75*
G02*
X100735000Y-30100000I0J150000D01*
G01*
X100735000Y-28450000D01*
G75*
G02*
X100885000Y-28300000I150000J0D01*
G01*
X101185000Y-28300000D01*
G75*
G02*
X101335000Y-28450000I0J-150000D01*
G01*
X101335000Y-30100000D01*
G75*
G02*
X101185000Y-30250000I-150000J0D01*
G01*
G37*
G36*
G01*
X102455000Y-30250000D02*
X102155000Y-30250000D01*
G75*
G02*
X102005000Y-30100000I0J150000D01*
G01*
X102005000Y-28450000D01*
G75*
G02*
X102155000Y-28300000I150000J0D01*
G01*
X102455000Y-28300000D01*
G75*
G02*
X102605000Y-28450000I0J-150000D01*
G01*
X102605000Y-30100000D01*
G75*
G02*
X102455000Y-30250000I-150000J0D01*
G01*
G37*
G36*
G01*
X103725000Y-30250000D02*
X103425000Y-30250000D01*
G75*
G02*
X103275000Y-30100000I0J150000D01*
G01*
X103275000Y-28450000D01*
G75*
G02*
X103425000Y-28300000I150000J0D01*
G01*
X103725000Y-28300000D01*
G75*
G02*
X103875000Y-28450000I0J-150000D01*
G01*
X103875000Y-30100000D01*
G75*
G02*
X103725000Y-30250000I-150000J0D01*
G01*
G37*
G36*
G01*
X103725000Y-35200000D02*
X103425000Y-35200000D01*
G75*
G02*
X103275000Y-35050000I0J150000D01*
G01*
X103275000Y-33400000D01*
G75*
G02*
X103425000Y-33250000I150000J0D01*
G01*
X103725000Y-33250000D01*
G75*
G02*
X103875000Y-33400000I0J-150000D01*
G01*
X103875000Y-35050000D01*
G75*
G02*
X103725000Y-35200000I-150000J0D01*
G01*
G37*
G36*
G01*
X102455000Y-35200000D02*
X102155000Y-35200000D01*
G75*
G02*
X102005000Y-35050000I0J150000D01*
G01*
X102005000Y-33400000D01*
G75*
G02*
X102155000Y-33250000I150000J0D01*
G01*
X102455000Y-33250000D01*
G75*
G02*
X102605000Y-33400000I0J-150000D01*
G01*
X102605000Y-35050000D01*
G75*
G02*
X102455000Y-35200000I-150000J0D01*
G01*
G37*
G36*
G01*
X101185000Y-35200000D02*
X100885000Y-35200000D01*
G75*
G02*
X100735000Y-35050000I0J150000D01*
G01*
X100735000Y-33400000D01*
G75*
G02*
X100885000Y-33250000I150000J0D01*
G01*
X101185000Y-33250000D01*
G75*
G02*
X101335000Y-33400000I0J-150000D01*
G01*
X101335000Y-35050000D01*
G75*
G02*
X101185000Y-35200000I-150000J0D01*
G01*
G37*
G36*
G01*
X99915000Y-35200000D02*
X99615000Y-35200000D01*
G75*
G02*
X99465000Y-35050000I0J150000D01*
G01*
X99465000Y-33400000D01*
G75*
G02*
X99615000Y-33250000I150000J0D01*
G01*
X99915000Y-33250000D01*
G75*
G02*
X100065000Y-33400000I0J-150000D01*
G01*
X100065000Y-35050000D01*
G75*
G02*
X99915000Y-35200000I-150000J0D01*
G01*
G37*
G36*
G01*
X98645000Y-35200000D02*
X98345000Y-35200000D01*
G75*
G02*
X98195000Y-35050000I0J150000D01*
G01*
X98195000Y-33400000D01*
G75*
G02*
X98345000Y-33250000I150000J0D01*
G01*
X98645000Y-33250000D01*
G75*
G02*
X98795000Y-33400000I0J-150000D01*
G01*
X98795000Y-35050000D01*
G75*
G02*
X98645000Y-35200000I-150000J0D01*
G01*
G37*
G36*
G01*
X97375000Y-35200000D02*
X97075000Y-35200000D01*
G75*
G02*
X96925000Y-35050000I0J150000D01*
G01*
X96925000Y-33400000D01*
G75*
G02*
X97075000Y-33250000I150000J0D01*
G01*
X97375000Y-33250000D01*
G75*
G02*
X97525000Y-33400000I0J-150000D01*
G01*
X97525000Y-35050000D01*
G75*
G02*
X97375000Y-35200000I-150000J0D01*
G01*
G37*
G36*
G01*
X96105000Y-35200000D02*
X95805000Y-35200000D01*
G75*
G02*
X95655000Y-35050000I0J150000D01*
G01*
X95655000Y-33400000D01*
G75*
G02*
X95805000Y-33250000I150000J0D01*
G01*
X96105000Y-33250000D01*
G75*
G02*
X96255000Y-33400000I0J-150000D01*
G01*
X96255000Y-35050000D01*
G75*
G02*
X96105000Y-35200000I-150000J0D01*
G01*
G37*
G36*
G01*
X94835000Y-35200000D02*
X94535000Y-35200000D01*
G75*
G02*
X94385000Y-35050000I0J150000D01*
G01*
X94385000Y-33400000D01*
G75*
G02*
X94535000Y-33250000I150000J0D01*
G01*
X94835000Y-33250000D01*
G75*
G02*
X94985000Y-33400000I0J-150000D01*
G01*
X94985000Y-35050000D01*
G75*
G02*
X94835000Y-35200000I-150000J0D01*
G01*
G37*
G04 #@! TD*
G04 #@! TO.C,R3*
G36*
G01*
X97660000Y-52889999D02*
X97660000Y-53790001D01*
G75*
G02*
X97410001Y-54040000I-249999J0D01*
G01*
X96709999Y-54040000D01*
G75*
G02*
X96460000Y-53790001I0J249999D01*
G01*
X96460000Y-52889999D01*
G75*
G02*
X96709999Y-52640000I249999J0D01*
G01*
X97410001Y-52640000D01*
G75*
G02*
X97660000Y-52889999I0J-249999D01*
G01*
G37*
G36*
G01*
X99660000Y-52889999D02*
X99660000Y-53790001D01*
G75*
G02*
X99410001Y-54040000I-249999J0D01*
G01*
X98709999Y-54040000D01*
G75*
G02*
X98460000Y-53790001I0J249999D01*
G01*
X98460000Y-52889999D01*
G75*
G02*
X98709999Y-52640000I249999J0D01*
G01*
X99410001Y-52640000D01*
G75*
G02*
X99660000Y-52889999I0J-249999D01*
G01*
G37*
G04 #@! TD*
G04 #@! TO.C,R2*
G36*
G01*
X105175000Y-46170001D02*
X105175000Y-45269999D01*
G75*
G02*
X105424999Y-45020000I249999J0D01*
G01*
X106125001Y-45020000D01*
G75*
G02*
X106375000Y-45269999I0J-249999D01*
G01*
X106375000Y-46170001D01*
G75*
G02*
X106125001Y-46420000I-249999J0D01*
G01*
X105424999Y-46420000D01*
G75*
G02*
X105175000Y-46170001I0J249999D01*
G01*
G37*
G36*
G01*
X103175000Y-46170001D02*
X103175000Y-45269999D01*
G75*
G02*
X103424999Y-45020000I249999J0D01*
G01*
X104125001Y-45020000D01*
G75*
G02*
X104375000Y-45269999I0J-249999D01*
G01*
X104375000Y-46170001D01*
G75*
G02*
X104125001Y-46420000I-249999J0D01*
G01*
X103424999Y-46420000D01*
G75*
G02*
X103175000Y-46170001I0J249999D01*
G01*
G37*
G04 #@! TD*
G04 #@! TO.C,R1*
G36*
G01*
X105175000Y-48710001D02*
X105175000Y-47809999D01*
G75*
G02*
X105424999Y-47560000I249999J0D01*
G01*
X106125001Y-47560000D01*
G75*
G02*
X106375000Y-47809999I0J-249999D01*
G01*
X106375000Y-48710001D01*
G75*
G02*
X106125001Y-48960000I-249999J0D01*
G01*
X105424999Y-48960000D01*
G75*
G02*
X105175000Y-48710001I0J249999D01*
G01*
G37*
G36*
G01*
X103175000Y-48710001D02*
X103175000Y-47809999D01*
G75*
G02*
X103424999Y-47560000I249999J0D01*
G01*
X104125001Y-47560000D01*
G75*
G02*
X104375000Y-47809999I0J-249999D01*
G01*
X104375000Y-48710001D01*
G75*
G02*
X104125001Y-48960000I-249999J0D01*
G01*
X103424999Y-48960000D01*
G75*
G02*
X103175000Y-48710001I0J249999D01*
G01*
G37*
G04 #@! TD*
D12*
G04 #@! TO.C,JP1*
X105425000Y-50800000D03*
X104125000Y-50800000D03*
G04 #@! TD*
D13*
G04 #@! TO.C,J4*
X109220000Y-56817000D03*
X109220000Y-54277000D03*
X109220000Y-51737000D03*
X109220000Y-49197000D03*
X109220000Y-46657000D03*
X109220000Y-44117000D03*
X109220000Y-41577000D03*
X109220000Y-39037000D03*
D14*
X109220000Y-36497000D03*
G04 #@! TD*
D13*
G04 #@! TO.C,J3*
X89090000Y-56817000D03*
X89090000Y-54277000D03*
X89090000Y-51737000D03*
X89090000Y-49197000D03*
X89090000Y-46657000D03*
X89090000Y-44117000D03*
X89090000Y-41577000D03*
X89090000Y-39037000D03*
D14*
X89090000Y-36497000D03*
G04 #@! TD*
D13*
G04 #@! TO.C,J2*
X101685000Y-56797000D03*
X99145000Y-56797000D03*
D14*
X96605000Y-56797000D03*
G04 #@! TD*
D15*
G04 #@! TO.C,J1*
X102030000Y-22892500D03*
X96230000Y-22892500D03*
D16*
X95630000Y-22892500D03*
X102630000Y-22892500D03*
D17*
X100130000Y-22892500D03*
D18*
X96630000Y-25592500D03*
D19*
X99130000Y-25592500D03*
X98480000Y-25592500D03*
X97830000Y-25592500D03*
X100430000Y-25592500D03*
X99780000Y-25592500D03*
D18*
X101630000Y-25592500D03*
D17*
X98130000Y-22892500D03*
G04 #@! TD*
G04 #@! TO.C,C7*
G36*
G01*
X105225000Y-43655000D02*
X105225000Y-42705000D01*
G75*
G02*
X105475000Y-42455000I250000J0D01*
G01*
X106150000Y-42455000D01*
G75*
G02*
X106400000Y-42705000I0J-250000D01*
G01*
X106400000Y-43655000D01*
G75*
G02*
X106150000Y-43905000I-250000J0D01*
G01*
X105475000Y-43905000D01*
G75*
G02*
X105225000Y-43655000I0J250000D01*
G01*
G37*
G36*
G01*
X103150000Y-43655000D02*
X103150000Y-42705000D01*
G75*
G02*
X103400000Y-42455000I250000J0D01*
G01*
X104075000Y-42455000D01*
G75*
G02*
X104325000Y-42705000I0J-250000D01*
G01*
X104325000Y-43655000D01*
G75*
G02*
X104075000Y-43905000I-250000J0D01*
G01*
X103400000Y-43905000D01*
G75*
G02*
X103150000Y-43655000I0J250000D01*
G01*
G37*
G04 #@! TD*
G04 #@! TO.C,C6*
G36*
G01*
X103030000Y-38550000D02*
X103980000Y-38550000D01*
G75*
G02*
X104230000Y-38800000I0J-250000D01*
G01*
X104230000Y-39475000D01*
G75*
G02*
X103980000Y-39725000I-250000J0D01*
G01*
X103030000Y-39725000D01*
G75*
G02*
X102780000Y-39475000I0J250000D01*
G01*
X102780000Y-38800000D01*
G75*
G02*
X103030000Y-38550000I250000J0D01*
G01*
G37*
G36*
G01*
X103030000Y-36475000D02*
X103980000Y-36475000D01*
G75*
G02*
X104230000Y-36725000I0J-250000D01*
G01*
X104230000Y-37400000D01*
G75*
G02*
X103980000Y-37650000I-250000J0D01*
G01*
X103030000Y-37650000D01*
G75*
G02*
X102780000Y-37400000I0J250000D01*
G01*
X102780000Y-36725000D01*
G75*
G02*
X103030000Y-36475000I250000J0D01*
G01*
G37*
G04 #@! TD*
G04 #@! TO.C,C5*
G36*
G01*
X95090000Y-37650000D02*
X94140000Y-37650000D01*
G75*
G02*
X93890000Y-37400000I0J250000D01*
G01*
X93890000Y-36725000D01*
G75*
G02*
X94140000Y-36475000I250000J0D01*
G01*
X95090000Y-36475000D01*
G75*
G02*
X95340000Y-36725000I0J-250000D01*
G01*
X95340000Y-37400000D01*
G75*
G02*
X95090000Y-37650000I-250000J0D01*
G01*
G37*
G36*
G01*
X95090000Y-39725000D02*
X94140000Y-39725000D01*
G75*
G02*
X93890000Y-39475000I0J250000D01*
G01*
X93890000Y-38800000D01*
G75*
G02*
X94140000Y-38550000I250000J0D01*
G01*
X95090000Y-38550000D01*
G75*
G02*
X95340000Y-38800000I0J-250000D01*
G01*
X95340000Y-39475000D01*
G75*
G02*
X95090000Y-39725000I-250000J0D01*
G01*
G37*
G04 #@! TD*
G04 #@! TO.C,C4*
G36*
G01*
X107765000Y-28415000D02*
X107765000Y-27465000D01*
G75*
G02*
X108015000Y-27215000I250000J0D01*
G01*
X108690000Y-27215000D01*
G75*
G02*
X108940000Y-27465000I0J-250000D01*
G01*
X108940000Y-28415000D01*
G75*
G02*
X108690000Y-28665000I-250000J0D01*
G01*
X108015000Y-28665000D01*
G75*
G02*
X107765000Y-28415000I0J250000D01*
G01*
G37*
G36*
G01*
X105690000Y-28415000D02*
X105690000Y-27465000D01*
G75*
G02*
X105940000Y-27215000I250000J0D01*
G01*
X106615000Y-27215000D01*
G75*
G02*
X106865000Y-27465000I0J-250000D01*
G01*
X106865000Y-28415000D01*
G75*
G02*
X106615000Y-28665000I-250000J0D01*
G01*
X105940000Y-28665000D01*
G75*
G02*
X105690000Y-28415000I0J250000D01*
G01*
G37*
G04 #@! TD*
G04 #@! TO.C,C3*
G36*
G01*
X107765000Y-33495000D02*
X107765000Y-32545000D01*
G75*
G02*
X108015000Y-32295000I250000J0D01*
G01*
X108690000Y-32295000D01*
G75*
G02*
X108940000Y-32545000I0J-250000D01*
G01*
X108940000Y-33495000D01*
G75*
G02*
X108690000Y-33745000I-250000J0D01*
G01*
X108015000Y-33745000D01*
G75*
G02*
X107765000Y-33495000I0J250000D01*
G01*
G37*
G36*
G01*
X105690000Y-33495000D02*
X105690000Y-32545000D01*
G75*
G02*
X105940000Y-32295000I250000J0D01*
G01*
X106615000Y-32295000D01*
G75*
G02*
X106865000Y-32545000I0J-250000D01*
G01*
X106865000Y-33495000D01*
G75*
G02*
X106615000Y-33745000I-250000J0D01*
G01*
X105940000Y-33745000D01*
G75*
G02*
X105690000Y-33495000I0J250000D01*
G01*
G37*
G04 #@! TD*
G04 #@! TO.C,C2*
G36*
G01*
X107765000Y-30955000D02*
X107765000Y-30005000D01*
G75*
G02*
X108015000Y-29755000I250000J0D01*
G01*
X108690000Y-29755000D01*
G75*
G02*
X108940000Y-30005000I0J-250000D01*
G01*
X108940000Y-30955000D01*
G75*
G02*
X108690000Y-31205000I-250000J0D01*
G01*
X108015000Y-31205000D01*
G75*
G02*
X107765000Y-30955000I0J250000D01*
G01*
G37*
G36*
G01*
X105690000Y-30955000D02*
X105690000Y-30005000D01*
G75*
G02*
X105940000Y-29755000I250000J0D01*
G01*
X106615000Y-29755000D01*
G75*
G02*
X106865000Y-30005000I0J-250000D01*
G01*
X106865000Y-30955000D01*
G75*
G02*
X106615000Y-31205000I-250000J0D01*
G01*
X105940000Y-31205000D01*
G75*
G02*
X105690000Y-30955000I0J250000D01*
G01*
G37*
G04 #@! TD*
G04 #@! TO.C,C1*
G36*
G01*
X107765000Y-25875000D02*
X107765000Y-24925000D01*
G75*
G02*
X108015000Y-24675000I250000J0D01*
G01*
X108690000Y-24675000D01*
G75*
G02*
X108940000Y-24925000I0J-250000D01*
G01*
X108940000Y-25875000D01*
G75*
G02*
X108690000Y-26125000I-250000J0D01*
G01*
X108015000Y-26125000D01*
G75*
G02*
X107765000Y-25875000I0J250000D01*
G01*
G37*
G36*
G01*
X105690000Y-25875000D02*
X105690000Y-24925000D01*
G75*
G02*
X105940000Y-24675000I250000J0D01*
G01*
X106615000Y-24675000D01*
G75*
G02*
X106865000Y-24925000I0J-250000D01*
G01*
X106865000Y-25875000D01*
G75*
G02*
X106615000Y-26125000I-250000J0D01*
G01*
X105940000Y-26125000D01*
G75*
G02*
X105690000Y-25875000I0J250000D01*
G01*
G37*
G04 #@! TD*
M02*
