M48
; DRILL file {KiCad (5.1.9)-1} date 03/27/21 20:38:17
; FORMAT={-:-/ absolute / inch / decimal}
; #@! TF.CreationDate,2021-03-27T20:38:17-07:00
; #@! TF.GenerationSoftware,Kicad,Pcbnew,(5.1.9)-1
FMAT,2
INCH
T1C0.0118
T2C0.0236
T3C0.0335
T4C0.0394
%
G90
G05
T1
X3.6Y-0.9
X3.6Y-0.9394
X3.6Y-0.9787
X3.6Y-1.0181
X3.6Y-1.0575
X3.6Y-1.3
X3.6Y-1.3787
X3.6Y-1.4575
X3.6Y-1.5362
X3.6Y-1.615
X3.6Y-2.26
X3.6Y-2.2994
X3.6394Y-0.9
X3.6394Y-0.9394
X3.6394Y-0.9787
X3.6394Y-1.0181
X3.6394Y-1.0575
X3.6394Y-1.3
X3.6394Y-1.3787
X3.6394Y-1.4575
X3.6394Y-1.5362
X3.6394Y-1.615
X3.6394Y-2.26
X3.6394Y-2.2994
X3.6787Y-0.9
X3.6787Y-0.9394
X3.6787Y-0.9787
X3.6787Y-1.0181
X3.6787Y-1.0575
X3.6787Y-2.26
X3.6787Y-2.2994
X3.75Y-1.67
X3.77Y-1.08
X3.79Y-1.4
X3.85Y-0.965
X3.87Y-1.42
X3.9Y-1.075
X3.925Y-1.275
X3.9315Y-1.075
X3.95Y-1.8
X3.9516Y-0.9687
X3.97Y-1.85
X3.975Y-1.275
X3.9772Y-1.95
X3.98Y-2.14
X3.99Y-2.06
X4.02Y-1.22
X4.04Y-1.68
X4.0818Y-1.0424
X4.11Y-1.07
X4.13Y-1.7754
X4.13Y-2.06
X4.18Y-1.15
X4.22Y-1.7746
X4.2515Y-1.3685
X4.2515Y-1.7746
X4.26Y-1.15
T3
X3.8043Y-1.0076
X4.0012Y-1.0076
T4
X3.5075Y-1.4369
X3.5075Y-1.5369
X3.5075Y-1.6369
X3.5075Y-1.7369
X3.5075Y-1.8369
X3.5075Y-1.9369
X3.5075Y-2.0369
X3.5075Y-2.1369
X3.5075Y-2.2369
X3.8033Y-2.2361
X3.9033Y-2.2361
X4.0033Y-2.2361
X4.3Y-1.4369
X4.3Y-1.5369
X4.3Y-1.6369
X4.3Y-1.7369
X4.3Y-1.8369
X4.3Y-1.9369
X4.3Y-2.0369
X4.3Y-2.1369
X4.3Y-2.2369
T2
G00X3.765Y-0.9151
M15
G01X3.765Y-0.8875
M16
G05
G00X4.0406Y-0.8875
M15
G01X4.0406Y-0.9151
M16
G05
T0
M30
