G04 #@! TF.GenerationSoftware,KiCad,Pcbnew,(5.1.9)-1*
G04 #@! TF.CreationDate,2021-03-27T20:38:15-07:00*
G04 #@! TF.ProjectId,attiny_arduino_serial,61747469-6e79-45f6-9172-6475696e6f5f,rev?*
G04 #@! TF.SameCoordinates,Original*
G04 #@! TF.FileFunction,Legend,Top*
G04 #@! TF.FilePolarity,Positive*
%FSLAX46Y46*%
G04 Gerber Fmt 4.6, Leading zero omitted, Abs format (unit mm)*
G04 Created by KiCad (PCBNEW (5.1.9)-1) date 2021-03-27 20:38:15*
%MOMM*%
%LPD*%
G01*
G04 APERTURE LIST*
%ADD10C,0.150000*%
%ADD11C,0.130000*%
%ADD12C,0.100000*%
%ADD13C,0.120000*%
G04 APERTURE END LIST*
D10*
X94902857Y-31257142D02*
X94902857Y-31900000D01*
X94860000Y-32028571D01*
X94774285Y-32114285D01*
X94645714Y-32157142D01*
X94560000Y-32157142D01*
X95760000Y-32157142D02*
X95331428Y-32157142D01*
X95331428Y-31257142D01*
X96574285Y-32071428D02*
X96531428Y-32114285D01*
X96402857Y-32157142D01*
X96317142Y-32157142D01*
X96188571Y-32114285D01*
X96102857Y-32028571D01*
X96060000Y-31942857D01*
X96017142Y-31771428D01*
X96017142Y-31642857D01*
X96060000Y-31471428D01*
X96102857Y-31385714D01*
X96188571Y-31300000D01*
X96317142Y-31257142D01*
X96402857Y-31257142D01*
X96531428Y-31300000D01*
X96574285Y-31342857D01*
X97217142Y-31257142D02*
X97217142Y-31900000D01*
X97174285Y-32028571D01*
X97088571Y-32114285D01*
X96960000Y-32157142D01*
X96874285Y-32157142D01*
X98074285Y-32157142D02*
X97645714Y-32157142D01*
X97645714Y-31257142D01*
X98888571Y-32071428D02*
X98845714Y-32114285D01*
X98717142Y-32157142D01*
X98631428Y-32157142D01*
X98502857Y-32114285D01*
X98417142Y-32028571D01*
X98374285Y-31942857D01*
X98331428Y-31771428D01*
X98331428Y-31642857D01*
X98374285Y-31471428D01*
X98417142Y-31385714D01*
X98502857Y-31300000D01*
X98631428Y-31257142D01*
X98717142Y-31257142D01*
X98845714Y-31300000D01*
X98888571Y-31342857D01*
X99531428Y-31257142D02*
X99531428Y-31900000D01*
X99488571Y-32028571D01*
X99402857Y-32114285D01*
X99274285Y-32157142D01*
X99188571Y-32157142D01*
X100388571Y-32157142D02*
X99960000Y-32157142D01*
X99960000Y-31257142D01*
X101202857Y-32071428D02*
X101160000Y-32114285D01*
X101031428Y-32157142D01*
X100945714Y-32157142D01*
X100817142Y-32114285D01*
X100731428Y-32028571D01*
X100688571Y-31942857D01*
X100645714Y-31771428D01*
X100645714Y-31642857D01*
X100688571Y-31471428D01*
X100731428Y-31385714D01*
X100817142Y-31300000D01*
X100945714Y-31257142D01*
X101031428Y-31257142D01*
X101160000Y-31300000D01*
X101202857Y-31342857D01*
X101845714Y-31257142D02*
X101845714Y-31900000D01*
X101802857Y-32028571D01*
X101717142Y-32114285D01*
X101588571Y-32157142D01*
X101502857Y-32157142D01*
X102702857Y-32157142D02*
X102274285Y-32157142D01*
X102274285Y-31257142D01*
X103517142Y-32071428D02*
X103474285Y-32114285D01*
X103345714Y-32157142D01*
X103260000Y-32157142D01*
X103131428Y-32114285D01*
X103045714Y-32028571D01*
X103002857Y-31942857D01*
X102960000Y-31771428D01*
X102960000Y-31642857D01*
X103002857Y-31471428D01*
X103045714Y-31385714D01*
X103131428Y-31300000D01*
X103260000Y-31257142D01*
X103345714Y-31257142D01*
X103474285Y-31300000D01*
X103517142Y-31342857D01*
D11*
X87688000Y-32813142D02*
X87645142Y-32898857D01*
X87645142Y-33027428D01*
X87688000Y-33156000D01*
X87773714Y-33241714D01*
X87859428Y-33284571D01*
X88030857Y-33327428D01*
X88159428Y-33327428D01*
X88330857Y-33284571D01*
X88416571Y-33241714D01*
X88502285Y-33156000D01*
X88545142Y-33027428D01*
X88545142Y-32941714D01*
X88502285Y-32813142D01*
X88459428Y-32770285D01*
X88159428Y-32770285D01*
X88159428Y-32941714D01*
X88545142Y-31998857D02*
X88073714Y-31998857D01*
X87988000Y-32041714D01*
X87945142Y-32127428D01*
X87945142Y-32298857D01*
X87988000Y-32384571D01*
X88502285Y-31998857D02*
X88545142Y-32084571D01*
X88545142Y-32298857D01*
X88502285Y-32384571D01*
X88416571Y-32427428D01*
X88330857Y-32427428D01*
X88245142Y-32384571D01*
X88202285Y-32298857D01*
X88202285Y-32084571D01*
X88159428Y-31998857D01*
X88545142Y-31570285D02*
X87945142Y-31570285D01*
X88116571Y-31570285D02*
X88030857Y-31527428D01*
X87988000Y-31484571D01*
X87945142Y-31398857D01*
X87945142Y-31313142D01*
X88545142Y-31013142D02*
X87645142Y-31013142D01*
X87988000Y-31013142D02*
X87945142Y-30927428D01*
X87945142Y-30756000D01*
X87988000Y-30670285D01*
X88030857Y-30627428D01*
X88116571Y-30584571D01*
X88373714Y-30584571D01*
X88459428Y-30627428D01*
X88502285Y-30670285D01*
X88545142Y-30756000D01*
X88545142Y-30927428D01*
X88502285Y-31013142D01*
X88545142Y-29813142D02*
X87645142Y-29813142D01*
X88502285Y-29813142D02*
X88545142Y-29898857D01*
X88545142Y-30070285D01*
X88502285Y-30156000D01*
X88459428Y-30198857D01*
X88373714Y-30241714D01*
X88116571Y-30241714D01*
X88030857Y-30198857D01*
X87988000Y-30156000D01*
X87945142Y-30070285D01*
X87945142Y-29898857D01*
X87988000Y-29813142D01*
X87945142Y-28998857D02*
X88545142Y-28998857D01*
X87945142Y-29384571D02*
X88416571Y-29384571D01*
X88502285Y-29341714D01*
X88545142Y-29256000D01*
X88545142Y-29127428D01*
X88502285Y-29041714D01*
X88459428Y-28998857D01*
X88545142Y-28570285D02*
X87945142Y-28570285D01*
X87645142Y-28570285D02*
X87688000Y-28613142D01*
X87730857Y-28570285D01*
X87688000Y-28527428D01*
X87645142Y-28570285D01*
X87730857Y-28570285D01*
X87945142Y-28141714D02*
X88545142Y-28141714D01*
X88030857Y-28141714D02*
X87988000Y-28098857D01*
X87945142Y-28013142D01*
X87945142Y-27884571D01*
X87988000Y-27798857D01*
X88073714Y-27756000D01*
X88545142Y-27756000D01*
X88545142Y-27198857D02*
X88502285Y-27284571D01*
X88459428Y-27327428D01*
X88373714Y-27370285D01*
X88116571Y-27370285D01*
X88030857Y-27327428D01*
X87988000Y-27284571D01*
X87945142Y-27198857D01*
X87945142Y-27070285D01*
X87988000Y-26984571D01*
X88030857Y-26941714D01*
X88116571Y-26898857D01*
X88373714Y-26898857D01*
X88459428Y-26941714D01*
X88502285Y-26984571D01*
X88545142Y-27070285D01*
X88545142Y-27198857D01*
X87645142Y-25956000D02*
X88545142Y-25656000D01*
X87645142Y-25356000D01*
X87730857Y-25098857D02*
X87688000Y-25056000D01*
X87645142Y-24970285D01*
X87645142Y-24756000D01*
X87688000Y-24670285D01*
X87730857Y-24627428D01*
X87816571Y-24584571D01*
X87902285Y-24584571D01*
X88030857Y-24627428D01*
X88545142Y-25141714D01*
X88545142Y-24584571D01*
D10*
X99950000Y-50737333D02*
X100050000Y-50770666D01*
X100216666Y-50770666D01*
X100283333Y-50737333D01*
X100316666Y-50704000D01*
X100350000Y-50637333D01*
X100350000Y-50570666D01*
X100316666Y-50504000D01*
X100283333Y-50470666D01*
X100216666Y-50437333D01*
X100083333Y-50404000D01*
X100016666Y-50370666D01*
X99983333Y-50337333D01*
X99950000Y-50270666D01*
X99950000Y-50204000D01*
X99983333Y-50137333D01*
X100016666Y-50104000D01*
X100083333Y-50070666D01*
X100250000Y-50070666D01*
X100350000Y-50104000D01*
X100916666Y-50737333D02*
X100850000Y-50770666D01*
X100716666Y-50770666D01*
X100650000Y-50737333D01*
X100616666Y-50670666D01*
X100616666Y-50404000D01*
X100650000Y-50337333D01*
X100716666Y-50304000D01*
X100850000Y-50304000D01*
X100916666Y-50337333D01*
X100950000Y-50404000D01*
X100950000Y-50470666D01*
X100616666Y-50537333D01*
X101250000Y-50770666D02*
X101250000Y-50304000D01*
X101250000Y-50437333D02*
X101283333Y-50370666D01*
X101316666Y-50337333D01*
X101383333Y-50304000D01*
X101450000Y-50304000D01*
X101683333Y-50770666D02*
X101683333Y-50304000D01*
X101683333Y-50070666D02*
X101650000Y-50104000D01*
X101683333Y-50137333D01*
X101716666Y-50104000D01*
X101683333Y-50070666D01*
X101683333Y-50137333D01*
X102316666Y-50770666D02*
X102316666Y-50404000D01*
X102283333Y-50337333D01*
X102216666Y-50304000D01*
X102083333Y-50304000D01*
X102016666Y-50337333D01*
X102316666Y-50737333D02*
X102250000Y-50770666D01*
X102083333Y-50770666D01*
X102016666Y-50737333D01*
X101983333Y-50670666D01*
X101983333Y-50604000D01*
X102016666Y-50537333D01*
X102083333Y-50504000D01*
X102250000Y-50504000D01*
X102316666Y-50470666D01*
X102750000Y-50770666D02*
X102683333Y-50737333D01*
X102650000Y-50670666D01*
X102650000Y-50070666D01*
X101216666Y-51970666D02*
X100983333Y-51637333D01*
X100816666Y-51970666D02*
X100816666Y-51270666D01*
X101083333Y-51270666D01*
X101150000Y-51304000D01*
X101183333Y-51337333D01*
X101216666Y-51404000D01*
X101216666Y-51504000D01*
X101183333Y-51570666D01*
X101150000Y-51604000D01*
X101083333Y-51637333D01*
X100816666Y-51637333D01*
X101483333Y-51937333D02*
X101583333Y-51970666D01*
X101750000Y-51970666D01*
X101816666Y-51937333D01*
X101850000Y-51904000D01*
X101883333Y-51837333D01*
X101883333Y-51770666D01*
X101850000Y-51704000D01*
X101816666Y-51670666D01*
X101750000Y-51637333D01*
X101616666Y-51604000D01*
X101550000Y-51570666D01*
X101516666Y-51537333D01*
X101483333Y-51470666D01*
X101483333Y-51404000D01*
X101516666Y-51337333D01*
X101550000Y-51304000D01*
X101616666Y-51270666D01*
X101783333Y-51270666D01*
X101883333Y-51304000D01*
X102083333Y-51270666D02*
X102483333Y-51270666D01*
X102283333Y-51970666D02*
X102283333Y-51270666D01*
X86423523Y-35881880D02*
X85947333Y-35881880D01*
X85899714Y-36358071D01*
X85947333Y-36310452D01*
X86042571Y-36262833D01*
X86280666Y-36262833D01*
X86375904Y-36310452D01*
X86423523Y-36358071D01*
X86471142Y-36453309D01*
X86471142Y-36691404D01*
X86423523Y-36786642D01*
X86375904Y-36834261D01*
X86280666Y-36881880D01*
X86042571Y-36881880D01*
X85947333Y-36834261D01*
X85899714Y-36786642D01*
X86756857Y-35881880D02*
X87090190Y-36881880D01*
X87423523Y-35881880D01*
X86423523Y-38421880D02*
X85947333Y-38421880D01*
X85899714Y-38898071D01*
X85947333Y-38850452D01*
X86042571Y-38802833D01*
X86280666Y-38802833D01*
X86375904Y-38850452D01*
X86423523Y-38898071D01*
X86471142Y-38993309D01*
X86471142Y-39231404D01*
X86423523Y-39326642D01*
X86375904Y-39374261D01*
X86280666Y-39421880D01*
X86042571Y-39421880D01*
X85947333Y-39374261D01*
X85899714Y-39326642D01*
X86756857Y-38421880D02*
X87090190Y-39421880D01*
X87423523Y-38421880D01*
X86423523Y-40961880D02*
X85947333Y-40961880D01*
X85899714Y-41438071D01*
X85947333Y-41390452D01*
X86042571Y-41342833D01*
X86280666Y-41342833D01*
X86375904Y-41390452D01*
X86423523Y-41438071D01*
X86471142Y-41533309D01*
X86471142Y-41771404D01*
X86423523Y-41866642D01*
X86375904Y-41914261D01*
X86280666Y-41961880D01*
X86042571Y-41961880D01*
X85947333Y-41914261D01*
X85899714Y-41866642D01*
X86756857Y-40961880D02*
X87090190Y-41961880D01*
X87423523Y-40961880D01*
D12*
X111125047Y-36200750D02*
X111077428Y-36176940D01*
X111006000Y-36176940D01*
X110934571Y-36200750D01*
X110886952Y-36248369D01*
X110863142Y-36295988D01*
X110839333Y-36391226D01*
X110839333Y-36462654D01*
X110863142Y-36557892D01*
X110886952Y-36605511D01*
X110934571Y-36653130D01*
X111006000Y-36676940D01*
X111053619Y-36676940D01*
X111125047Y-36653130D01*
X111148857Y-36629321D01*
X111148857Y-36462654D01*
X111053619Y-36462654D01*
X111363142Y-36676940D02*
X111363142Y-36176940D01*
X111648857Y-36676940D01*
X111648857Y-36176940D01*
X111886952Y-36676940D02*
X111886952Y-36176940D01*
X112006000Y-36176940D01*
X112077428Y-36200750D01*
X112125047Y-36248369D01*
X112148857Y-36295988D01*
X112172666Y-36391226D01*
X112172666Y-36462654D01*
X112148857Y-36557892D01*
X112125047Y-36605511D01*
X112077428Y-36653130D01*
X112006000Y-36676940D01*
X111886952Y-36676940D01*
X111125047Y-38740750D02*
X111077428Y-38716940D01*
X111006000Y-38716940D01*
X110934571Y-38740750D01*
X110886952Y-38788369D01*
X110863142Y-38835988D01*
X110839333Y-38931226D01*
X110839333Y-39002654D01*
X110863142Y-39097892D01*
X110886952Y-39145511D01*
X110934571Y-39193130D01*
X111006000Y-39216940D01*
X111053619Y-39216940D01*
X111125047Y-39193130D01*
X111148857Y-39169321D01*
X111148857Y-39002654D01*
X111053619Y-39002654D01*
X111363142Y-39216940D02*
X111363142Y-38716940D01*
X111648857Y-39216940D01*
X111648857Y-38716940D01*
X111886952Y-39216940D02*
X111886952Y-38716940D01*
X112006000Y-38716940D01*
X112077428Y-38740750D01*
X112125047Y-38788369D01*
X112148857Y-38835988D01*
X112172666Y-38931226D01*
X112172666Y-39002654D01*
X112148857Y-39097892D01*
X112125047Y-39145511D01*
X112077428Y-39193130D01*
X112006000Y-39216940D01*
X111886952Y-39216940D01*
X111125047Y-41280750D02*
X111077428Y-41256940D01*
X111006000Y-41256940D01*
X110934571Y-41280750D01*
X110886952Y-41328369D01*
X110863142Y-41375988D01*
X110839333Y-41471226D01*
X110839333Y-41542654D01*
X110863142Y-41637892D01*
X110886952Y-41685511D01*
X110934571Y-41733130D01*
X111006000Y-41756940D01*
X111053619Y-41756940D01*
X111125047Y-41733130D01*
X111148857Y-41709321D01*
X111148857Y-41542654D01*
X111053619Y-41542654D01*
X111363142Y-41756940D02*
X111363142Y-41256940D01*
X111648857Y-41756940D01*
X111648857Y-41256940D01*
X111886952Y-41756940D02*
X111886952Y-41256940D01*
X112006000Y-41256940D01*
X112077428Y-41280750D01*
X112125047Y-41328369D01*
X112148857Y-41375988D01*
X112172666Y-41471226D01*
X112172666Y-41542654D01*
X112148857Y-41637892D01*
X112125047Y-41685511D01*
X112077428Y-41733130D01*
X112006000Y-41756940D01*
X111886952Y-41756940D01*
D10*
X111315523Y-44501880D02*
X110744095Y-44501880D01*
X111029809Y-44501880D02*
X111029809Y-43501880D01*
X110934571Y-43644738D01*
X110839333Y-43739976D01*
X110744095Y-43787595D01*
X111934571Y-43501880D02*
X112029809Y-43501880D01*
X112125047Y-43549500D01*
X112172666Y-43597119D01*
X112220285Y-43692357D01*
X112267904Y-43882833D01*
X112267904Y-44120928D01*
X112220285Y-44311404D01*
X112172666Y-44406642D01*
X112125047Y-44454261D01*
X112029809Y-44501880D01*
X111934571Y-44501880D01*
X111839333Y-44454261D01*
X111791714Y-44406642D01*
X111744095Y-44311404D01*
X111696476Y-44120928D01*
X111696476Y-43882833D01*
X111744095Y-43692357D01*
X111791714Y-43597119D01*
X111839333Y-43549500D01*
X111934571Y-43501880D01*
X111315523Y-47161880D02*
X111506000Y-47161880D01*
X111601238Y-47114261D01*
X111648857Y-47066642D01*
X111744095Y-46923785D01*
X111791714Y-46733309D01*
X111791714Y-46352357D01*
X111744095Y-46257119D01*
X111696476Y-46209500D01*
X111601238Y-46161880D01*
X111410761Y-46161880D01*
X111315523Y-46209500D01*
X111267904Y-46257119D01*
X111220285Y-46352357D01*
X111220285Y-46590452D01*
X111267904Y-46685690D01*
X111315523Y-46733309D01*
X111410761Y-46780928D01*
X111601238Y-46780928D01*
X111696476Y-46733309D01*
X111744095Y-46685690D01*
X111791714Y-46590452D01*
X111410761Y-49250452D02*
X111315523Y-49202833D01*
X111267904Y-49155214D01*
X111220285Y-49059976D01*
X111220285Y-49012357D01*
X111267904Y-48917119D01*
X111315523Y-48869500D01*
X111410761Y-48821880D01*
X111601238Y-48821880D01*
X111696476Y-48869500D01*
X111744095Y-48917119D01*
X111791714Y-49012357D01*
X111791714Y-49059976D01*
X111744095Y-49155214D01*
X111696476Y-49202833D01*
X111601238Y-49250452D01*
X111410761Y-49250452D01*
X111315523Y-49298071D01*
X111267904Y-49345690D01*
X111220285Y-49440928D01*
X111220285Y-49631404D01*
X111267904Y-49726642D01*
X111315523Y-49774261D01*
X111410761Y-49821880D01*
X111601238Y-49821880D01*
X111696476Y-49774261D01*
X111744095Y-49726642D01*
X111791714Y-49631404D01*
X111791714Y-49440928D01*
X111744095Y-49345690D01*
X111696476Y-49298071D01*
X111601238Y-49250452D01*
D12*
X111177428Y-52012928D02*
X110977428Y-51727214D01*
X110834571Y-52012928D02*
X110834571Y-51412928D01*
X111063142Y-51412928D01*
X111120285Y-51441500D01*
X111148857Y-51470071D01*
X111177428Y-51527214D01*
X111177428Y-51612928D01*
X111148857Y-51670071D01*
X111120285Y-51698642D01*
X111063142Y-51727214D01*
X110834571Y-51727214D01*
X111406000Y-51984357D02*
X111491714Y-52012928D01*
X111634571Y-52012928D01*
X111691714Y-51984357D01*
X111720285Y-51955785D01*
X111748857Y-51898642D01*
X111748857Y-51841500D01*
X111720285Y-51784357D01*
X111691714Y-51755785D01*
X111634571Y-51727214D01*
X111520285Y-51698642D01*
X111463142Y-51670071D01*
X111434571Y-51641500D01*
X111406000Y-51584357D01*
X111406000Y-51527214D01*
X111434571Y-51470071D01*
X111463142Y-51441500D01*
X111520285Y-51412928D01*
X111663142Y-51412928D01*
X111748857Y-51441500D01*
X111920285Y-51412928D02*
X112263142Y-51412928D01*
X112091714Y-52012928D02*
X112091714Y-51412928D01*
D10*
X111172666Y-53541880D02*
X111839333Y-53541880D01*
X111410761Y-54541880D01*
X111696476Y-56201880D02*
X111506000Y-56201880D01*
X111410761Y-56249500D01*
X111363142Y-56297119D01*
X111267904Y-56439976D01*
X111220285Y-56630452D01*
X111220285Y-57011404D01*
X111267904Y-57106642D01*
X111315523Y-57154261D01*
X111410761Y-57201880D01*
X111601238Y-57201880D01*
X111696476Y-57154261D01*
X111744095Y-57106642D01*
X111791714Y-57011404D01*
X111791714Y-56773309D01*
X111744095Y-56678071D01*
X111696476Y-56630452D01*
X111601238Y-56582833D01*
X111410761Y-56582833D01*
X111315523Y-56630452D01*
X111267904Y-56678071D01*
X111220285Y-56773309D01*
X86852095Y-56201880D02*
X86375904Y-56201880D01*
X86328285Y-56678071D01*
X86375904Y-56630452D01*
X86471142Y-56582833D01*
X86709238Y-56582833D01*
X86804476Y-56630452D01*
X86852095Y-56678071D01*
X86899714Y-56773309D01*
X86899714Y-57011404D01*
X86852095Y-57106642D01*
X86804476Y-57154261D01*
X86709238Y-57201880D01*
X86471142Y-57201880D01*
X86375904Y-57154261D01*
X86328285Y-57106642D01*
X86804476Y-53995214D02*
X86804476Y-54661880D01*
X86566380Y-53614261D02*
X86328285Y-54328547D01*
X86947333Y-54328547D01*
X86280666Y-51121880D02*
X86899714Y-51121880D01*
X86566380Y-51502833D01*
X86709238Y-51502833D01*
X86804476Y-51550452D01*
X86852095Y-51598071D01*
X86899714Y-51693309D01*
X86899714Y-51931404D01*
X86852095Y-52026642D01*
X86804476Y-52074261D01*
X86709238Y-52121880D01*
X86423523Y-52121880D01*
X86328285Y-52074261D01*
X86280666Y-52026642D01*
X86328285Y-48677119D02*
X86375904Y-48629500D01*
X86471142Y-48581880D01*
X86709238Y-48581880D01*
X86804476Y-48629500D01*
X86852095Y-48677119D01*
X86899714Y-48772357D01*
X86899714Y-48867595D01*
X86852095Y-49010452D01*
X86280666Y-49581880D01*
X86899714Y-49581880D01*
X86899714Y-47041880D02*
X86328285Y-47041880D01*
X86614000Y-47041880D02*
X86614000Y-46041880D01*
X86518761Y-46184738D01*
X86423523Y-46279976D01*
X86328285Y-46327595D01*
X86566380Y-43501880D02*
X86661619Y-43501880D01*
X86756857Y-43549500D01*
X86804476Y-43597119D01*
X86852095Y-43692357D01*
X86899714Y-43882833D01*
X86899714Y-44120928D01*
X86852095Y-44311404D01*
X86804476Y-44406642D01*
X86756857Y-44454261D01*
X86661619Y-44501880D01*
X86566380Y-44501880D01*
X86471142Y-44454261D01*
X86423523Y-44406642D01*
X86375904Y-44311404D01*
X86328285Y-44120928D01*
X86328285Y-43882833D01*
X86375904Y-43692357D01*
X86423523Y-43597119D01*
X86471142Y-43549500D01*
X86566380Y-43501880D01*
X102362095Y-58682000D02*
X102266857Y-58634380D01*
X102124000Y-58634380D01*
X101981142Y-58682000D01*
X101885904Y-58777238D01*
X101838285Y-58872476D01*
X101790666Y-59062952D01*
X101790666Y-59205809D01*
X101838285Y-59396285D01*
X101885904Y-59491523D01*
X101981142Y-59586761D01*
X102124000Y-59634380D01*
X102219238Y-59634380D01*
X102362095Y-59586761D01*
X102409714Y-59539142D01*
X102409714Y-59205809D01*
X102219238Y-59205809D01*
X102838285Y-59634380D02*
X102838285Y-58634380D01*
X103409714Y-59634380D01*
X103409714Y-58634380D01*
X103885904Y-59634380D02*
X103885904Y-58634380D01*
X104124000Y-58634380D01*
X104266857Y-58682000D01*
X104362095Y-58777238D01*
X104409714Y-58872476D01*
X104457333Y-59062952D01*
X104457333Y-59205809D01*
X104409714Y-59396285D01*
X104362095Y-59491523D01*
X104266857Y-59586761D01*
X104124000Y-59634380D01*
X103885904Y-59634380D01*
X98597380Y-59634380D02*
X98264047Y-59158190D01*
X98025952Y-59634380D02*
X98025952Y-58634380D01*
X98406904Y-58634380D01*
X98502142Y-58682000D01*
X98549761Y-58729619D01*
X98597380Y-58824857D01*
X98597380Y-58967714D01*
X98549761Y-59062952D01*
X98502142Y-59110571D01*
X98406904Y-59158190D01*
X98025952Y-59158190D01*
X98978333Y-59586761D02*
X99121190Y-59634380D01*
X99359285Y-59634380D01*
X99454523Y-59586761D01*
X99502142Y-59539142D01*
X99549761Y-59443904D01*
X99549761Y-59348666D01*
X99502142Y-59253428D01*
X99454523Y-59205809D01*
X99359285Y-59158190D01*
X99168809Y-59110571D01*
X99073571Y-59062952D01*
X99025952Y-59015333D01*
X98978333Y-58920095D01*
X98978333Y-58824857D01*
X99025952Y-58729619D01*
X99073571Y-58682000D01*
X99168809Y-58634380D01*
X99406904Y-58634380D01*
X99549761Y-58682000D01*
X99835476Y-58634380D02*
X100406904Y-58634380D01*
X100121190Y-59634380D02*
X100121190Y-58634380D01*
X95567523Y-58634380D02*
X95091333Y-58634380D01*
X95043714Y-59110571D01*
X95091333Y-59062952D01*
X95186571Y-59015333D01*
X95424666Y-59015333D01*
X95519904Y-59062952D01*
X95567523Y-59110571D01*
X95615142Y-59205809D01*
X95615142Y-59443904D01*
X95567523Y-59539142D01*
X95519904Y-59586761D01*
X95424666Y-59634380D01*
X95186571Y-59634380D01*
X95091333Y-59586761D01*
X95043714Y-59539142D01*
X95900857Y-58634380D02*
X96234190Y-59634380D01*
X96567523Y-58634380D01*
D13*
G04 #@! TO.C,R4*
X105002064Y-53113000D02*
X104547936Y-53113000D01*
X105002064Y-54583000D02*
X104547936Y-54583000D01*
G04 #@! TO.C,D1*
X104918000Y-40350000D02*
X104918000Y-36450000D01*
X106918000Y-40350000D02*
X106918000Y-36450000D01*
X104918000Y-40350000D02*
X106918000Y-40350000D01*
G04 #@! TO.C,Y1*
X96360000Y-40985000D02*
X101760000Y-40985000D01*
X96360000Y-36485000D02*
X96360000Y-40985000D01*
G04 #@! TO.C,U2*
X95885000Y-42555000D02*
X92435000Y-42555000D01*
X95885000Y-42555000D02*
X97835000Y-42555000D01*
X95885000Y-51425000D02*
X93935000Y-51425000D01*
X95885000Y-51425000D02*
X97835000Y-51425000D01*
G04 #@! TO.C,U1*
X94070000Y-31750000D02*
X94070000Y-35200000D01*
X94070000Y-31750000D02*
X94070000Y-29800000D01*
X104190000Y-31750000D02*
X104190000Y-33700000D01*
X104190000Y-31750000D02*
X104190000Y-29800000D01*
G04 #@! TO.C,R3*
X98287064Y-52605000D02*
X97832936Y-52605000D01*
X98287064Y-54075000D02*
X97832936Y-54075000D01*
G04 #@! TO.C,R2*
X104547936Y-46455000D02*
X105002064Y-46455000D01*
X104547936Y-44985000D02*
X105002064Y-44985000D01*
G04 #@! TO.C,R1*
X104547936Y-48995000D02*
X105002064Y-48995000D01*
X104547936Y-47525000D02*
X105002064Y-47525000D01*
G04 #@! TO.C,JP1*
X106175000Y-51800000D02*
X103375000Y-51800000D01*
X103375000Y-51800000D02*
X103375000Y-49800000D01*
X103375000Y-49800000D02*
X106175000Y-49800000D01*
X106175000Y-49800000D02*
X106175000Y-51800000D01*
G04 #@! TO.C,J4*
X109220000Y-35167000D02*
X110550000Y-35167000D01*
X110550000Y-35167000D02*
X110550000Y-36497000D01*
X110550000Y-37767000D02*
X110550000Y-58147000D01*
X107890000Y-58147000D02*
X110550000Y-58147000D01*
X107890000Y-37767000D02*
X107890000Y-58147000D01*
X107890000Y-37767000D02*
X110550000Y-37767000D01*
G04 #@! TO.C,J3*
X89090000Y-35167000D02*
X90420000Y-35167000D01*
X90420000Y-35167000D02*
X90420000Y-36497000D01*
X90420000Y-37767000D02*
X90420000Y-58147000D01*
X87760000Y-58147000D02*
X90420000Y-58147000D01*
X87760000Y-37767000D02*
X87760000Y-58147000D01*
X87760000Y-37767000D02*
X90420000Y-37767000D01*
G04 #@! TO.C,J2*
X95275000Y-56797000D02*
X95275000Y-55467000D01*
X95275000Y-55467000D02*
X96605000Y-55467000D01*
X97875000Y-55467000D02*
X103015000Y-55467000D01*
X103015000Y-58127000D02*
X103015000Y-55467000D01*
X97875000Y-58127000D02*
X103015000Y-58127000D01*
X97875000Y-58127000D02*
X97875000Y-55467000D01*
G04 #@! TO.C,J1*
X100830000Y-26442500D02*
X100830000Y-25992500D01*
X100830000Y-26442500D02*
X100380000Y-26442500D01*
X95230000Y-25892500D02*
X95680000Y-25892500D01*
X95230000Y-24042500D02*
X95230000Y-25892500D01*
X103030000Y-21492500D02*
X103030000Y-21742500D01*
X95230000Y-21492500D02*
X95230000Y-21742500D01*
X103030000Y-24042500D02*
X103030000Y-25892500D01*
X103030000Y-25892500D02*
X102580000Y-25892500D01*
G04 #@! TO.C,C7*
X104513748Y-43915000D02*
X105036252Y-43915000D01*
X104513748Y-42445000D02*
X105036252Y-42445000D01*
G04 #@! TO.C,C6*
X102770000Y-37838748D02*
X102770000Y-38361252D01*
X104240000Y-37838748D02*
X104240000Y-38361252D01*
G04 #@! TO.C,C5*
X95350000Y-38361252D02*
X95350000Y-37838748D01*
X93880000Y-38361252D02*
X93880000Y-37838748D01*
G04 #@! TO.C,C4*
X107053748Y-28675000D02*
X107576252Y-28675000D01*
X107053748Y-27205000D02*
X107576252Y-27205000D01*
G04 #@! TO.C,C3*
X107053748Y-33755000D02*
X107576252Y-33755000D01*
X107053748Y-32285000D02*
X107576252Y-32285000D01*
G04 #@! TO.C,C2*
X107053748Y-31215000D02*
X107576252Y-31215000D01*
X107053748Y-29745000D02*
X107576252Y-29745000D01*
G04 #@! TO.C,C1*
X107053748Y-26135000D02*
X107576252Y-26135000D01*
X107053748Y-24665000D02*
X107576252Y-24665000D01*
G04 #@! TO.C,R4*
D10*
X101433333Y-54300381D02*
X101100000Y-53824191D01*
X100861904Y-54300381D02*
X100861904Y-53300381D01*
X101242857Y-53300381D01*
X101338095Y-53348001D01*
X101385714Y-53395620D01*
X101433333Y-53490858D01*
X101433333Y-53633715D01*
X101385714Y-53728953D01*
X101338095Y-53776572D01*
X101242857Y-53824191D01*
X100861904Y-53824191D01*
X102290476Y-53633715D02*
X102290476Y-54300381D01*
X102052380Y-53252762D02*
X101814285Y-53967048D01*
X102433333Y-53967048D01*
G04 #@! TO.C,U2*
X95123095Y-41162380D02*
X95123095Y-41971904D01*
X95170714Y-42067142D01*
X95218333Y-42114761D01*
X95313571Y-42162380D01*
X95504047Y-42162380D01*
X95599285Y-42114761D01*
X95646904Y-42067142D01*
X95694523Y-41971904D01*
X95694523Y-41162380D01*
X96123095Y-41257619D02*
X96170714Y-41210000D01*
X96265952Y-41162380D01*
X96504047Y-41162380D01*
X96599285Y-41210000D01*
X96646904Y-41257619D01*
X96694523Y-41352857D01*
X96694523Y-41448095D01*
X96646904Y-41590952D01*
X96075476Y-42162380D01*
X96694523Y-42162380D01*
G04 #@! TO.C,R3*
X94988333Y-53792380D02*
X94655000Y-53316190D01*
X94416904Y-53792380D02*
X94416904Y-52792380D01*
X94797857Y-52792380D01*
X94893095Y-52840000D01*
X94940714Y-52887619D01*
X94988333Y-52982857D01*
X94988333Y-53125714D01*
X94940714Y-53220952D01*
X94893095Y-53268571D01*
X94797857Y-53316190D01*
X94416904Y-53316190D01*
X95321666Y-52792380D02*
X95940714Y-52792380D01*
X95607380Y-53173333D01*
X95750238Y-53173333D01*
X95845476Y-53220952D01*
X95893095Y-53268571D01*
X95940714Y-53363809D01*
X95940714Y-53601904D01*
X95893095Y-53697142D01*
X95845476Y-53744761D01*
X95750238Y-53792380D01*
X95464523Y-53792380D01*
X95369285Y-53744761D01*
X95321666Y-53697142D01*
G04 #@! TO.C,R2*
X101433333Y-46172380D02*
X101100000Y-45696190D01*
X100861904Y-46172380D02*
X100861904Y-45172380D01*
X101242857Y-45172380D01*
X101338095Y-45220000D01*
X101385714Y-45267619D01*
X101433333Y-45362857D01*
X101433333Y-45505714D01*
X101385714Y-45600952D01*
X101338095Y-45648571D01*
X101242857Y-45696190D01*
X100861904Y-45696190D01*
X101814285Y-45267619D02*
X101861904Y-45220000D01*
X101957142Y-45172380D01*
X102195238Y-45172380D01*
X102290476Y-45220000D01*
X102338095Y-45267619D01*
X102385714Y-45362857D01*
X102385714Y-45458095D01*
X102338095Y-45600952D01*
X101766666Y-46172380D01*
X102385714Y-46172380D01*
G04 #@! TO.C,R1*
X101433333Y-48712380D02*
X101100000Y-48236190D01*
X100861904Y-48712380D02*
X100861904Y-47712380D01*
X101242857Y-47712380D01*
X101338095Y-47760000D01*
X101385714Y-47807619D01*
X101433333Y-47902857D01*
X101433333Y-48045714D01*
X101385714Y-48140952D01*
X101338095Y-48188571D01*
X101242857Y-48236190D01*
X100861904Y-48236190D01*
X102385714Y-48712380D02*
X101814285Y-48712380D01*
X102100000Y-48712380D02*
X102100000Y-47712380D01*
X102004761Y-47855238D01*
X101909523Y-47950476D01*
X101814285Y-47998095D01*
G04 #@! TO.C,C7*
X101433333Y-43537142D02*
X101385714Y-43584761D01*
X101242857Y-43632380D01*
X101147619Y-43632380D01*
X101004761Y-43584761D01*
X100909523Y-43489523D01*
X100861904Y-43394285D01*
X100814285Y-43203809D01*
X100814285Y-43060952D01*
X100861904Y-42870476D01*
X100909523Y-42775238D01*
X101004761Y-42680000D01*
X101147619Y-42632380D01*
X101242857Y-42632380D01*
X101385714Y-42680000D01*
X101433333Y-42727619D01*
X101766666Y-42632380D02*
X102433333Y-42632380D01*
X102004761Y-43632380D01*
G04 #@! TO.C,C4*
X110090833Y-28297142D02*
X110043214Y-28344761D01*
X109900357Y-28392380D01*
X109805119Y-28392380D01*
X109662261Y-28344761D01*
X109567023Y-28249523D01*
X109519404Y-28154285D01*
X109471785Y-27963809D01*
X109471785Y-27820952D01*
X109519404Y-27630476D01*
X109567023Y-27535238D01*
X109662261Y-27440000D01*
X109805119Y-27392380D01*
X109900357Y-27392380D01*
X110043214Y-27440000D01*
X110090833Y-27487619D01*
X110947976Y-27725714D02*
X110947976Y-28392380D01*
X110709880Y-27344761D02*
X110471785Y-28059047D01*
X111090833Y-28059047D01*
G04 #@! TO.C,C3*
X110090833Y-33377142D02*
X110043214Y-33424761D01*
X109900357Y-33472380D01*
X109805119Y-33472380D01*
X109662261Y-33424761D01*
X109567023Y-33329523D01*
X109519404Y-33234285D01*
X109471785Y-33043809D01*
X109471785Y-32900952D01*
X109519404Y-32710476D01*
X109567023Y-32615238D01*
X109662261Y-32520000D01*
X109805119Y-32472380D01*
X109900357Y-32472380D01*
X110043214Y-32520000D01*
X110090833Y-32567619D01*
X110424166Y-32472380D02*
X111043214Y-32472380D01*
X110709880Y-32853333D01*
X110852738Y-32853333D01*
X110947976Y-32900952D01*
X110995595Y-32948571D01*
X111043214Y-33043809D01*
X111043214Y-33281904D01*
X110995595Y-33377142D01*
X110947976Y-33424761D01*
X110852738Y-33472380D01*
X110567023Y-33472380D01*
X110471785Y-33424761D01*
X110424166Y-33377142D01*
G04 #@! TO.C,C2*
X110090833Y-30837142D02*
X110043214Y-30884761D01*
X109900357Y-30932380D01*
X109805119Y-30932380D01*
X109662261Y-30884761D01*
X109567023Y-30789523D01*
X109519404Y-30694285D01*
X109471785Y-30503809D01*
X109471785Y-30360952D01*
X109519404Y-30170476D01*
X109567023Y-30075238D01*
X109662261Y-29980000D01*
X109805119Y-29932380D01*
X109900357Y-29932380D01*
X110043214Y-29980000D01*
X110090833Y-30027619D01*
X110471785Y-30027619D02*
X110519404Y-29980000D01*
X110614642Y-29932380D01*
X110852738Y-29932380D01*
X110947976Y-29980000D01*
X110995595Y-30027619D01*
X111043214Y-30122857D01*
X111043214Y-30218095D01*
X110995595Y-30360952D01*
X110424166Y-30932380D01*
X111043214Y-30932380D01*
G04 #@! TO.C,C1*
X110090833Y-25757142D02*
X110043214Y-25804761D01*
X109900357Y-25852380D01*
X109805119Y-25852380D01*
X109662261Y-25804761D01*
X109567023Y-25709523D01*
X109519404Y-25614285D01*
X109471785Y-25423809D01*
X109471785Y-25280952D01*
X109519404Y-25090476D01*
X109567023Y-24995238D01*
X109662261Y-24900000D01*
X109805119Y-24852380D01*
X109900357Y-24852380D01*
X110043214Y-24900000D01*
X110090833Y-24947619D01*
X111043214Y-25852380D02*
X110471785Y-25852380D01*
X110757500Y-25852380D02*
X110757500Y-24852380D01*
X110662261Y-24995238D01*
X110567023Y-25090476D01*
X110471785Y-25138095D01*
G04 #@! TD*
M02*
