G04 #@! TF.GenerationSoftware,KiCad,Pcbnew,(5.1.9)-1*
G04 #@! TF.CreationDate,2021-03-27T20:38:15-07:00*
G04 #@! TF.ProjectId,attiny_arduino_serial,61747469-6e79-45f6-9172-6475696e6f5f,rev?*
G04 #@! TF.SameCoordinates,Original*
G04 #@! TF.FileFunction,Copper,L2,Bot*
G04 #@! TF.FilePolarity,Positive*
%FSLAX46Y46*%
G04 Gerber Fmt 4.6, Leading zero omitted, Abs format (unit mm)*
G04 Created by KiCad (PCBNEW (5.1.9)-1) date 2021-03-27 20:38:15*
%MOMM*%
%LPD*%
G01*
G04 APERTURE LIST*
G04 #@! TA.AperFunction,ComponentPad*
%ADD10O,1.700000X1.700000*%
G04 #@! TD*
G04 #@! TA.AperFunction,ComponentPad*
%ADD11R,1.700000X1.700000*%
G04 #@! TD*
G04 #@! TA.AperFunction,ComponentPad*
%ADD12O,1.200000X1.900000*%
G04 #@! TD*
G04 #@! TA.AperFunction,ComponentPad*
%ADD13C,1.450000*%
G04 #@! TD*
G04 #@! TA.AperFunction,ViaPad*
%ADD14C,0.600000*%
G04 #@! TD*
G04 #@! TA.AperFunction,Conductor*
%ADD15C,0.400000*%
G04 #@! TD*
G04 #@! TA.AperFunction,Conductor*
%ADD16C,0.250000*%
G04 #@! TD*
G04 #@! TA.AperFunction,Conductor*
%ADD17C,0.800000*%
G04 #@! TD*
G04 #@! TA.AperFunction,Conductor*
%ADD18C,0.254000*%
G04 #@! TD*
G04 #@! TA.AperFunction,Conductor*
%ADD19C,0.100000*%
G04 #@! TD*
G04 APERTURE END LIST*
D10*
G04 #@! TO.P,J4,9*
G04 #@! TO.N,PB1*
X109220000Y-56817000D03*
G04 #@! TO.P,J4,8*
G04 #@! TO.N,PB0*
X109220000Y-54277000D03*
G04 #@! TO.P,J4,7*
G04 #@! TO.N,RESET*
X109220000Y-51737000D03*
G04 #@! TO.P,J4,6*
G04 #@! TO.N,PA1*
X109220000Y-49197000D03*
G04 #@! TO.P,J4,5*
G04 #@! TO.N,PA2*
X109220000Y-46657000D03*
G04 #@! TO.P,J4,4*
G04 #@! TO.N,PA3*
X109220000Y-44117000D03*
G04 #@! TO.P,J4,3*
G04 #@! TO.N,GND*
X109220000Y-41577000D03*
G04 #@! TO.P,J4,2*
X109220000Y-39037000D03*
D11*
G04 #@! TO.P,J4,1*
X109220000Y-36497000D03*
G04 #@! TD*
D10*
G04 #@! TO.P,J3,9*
G04 #@! TO.N,PB2*
X89090000Y-56817000D03*
G04 #@! TO.P,J3,8*
G04 #@! TO.N,PB3*
X89090000Y-54277000D03*
G04 #@! TO.P,J3,7*
G04 #@! TO.N,PA7*
X89090000Y-51737000D03*
G04 #@! TO.P,J3,6*
G04 #@! TO.N,PA6*
X89090000Y-49197000D03*
G04 #@! TO.P,J3,5*
G04 #@! TO.N,PA5*
X89090000Y-46657000D03*
G04 #@! TO.P,J3,4*
G04 #@! TO.N,PA4*
X89090000Y-44117000D03*
G04 #@! TO.P,J3,3*
G04 #@! TO.N,+5V*
X89090000Y-41577000D03*
G04 #@! TO.P,J3,2*
X89090000Y-39037000D03*
D11*
G04 #@! TO.P,J3,1*
X89090000Y-36497000D03*
G04 #@! TD*
D10*
G04 #@! TO.P,J2,3*
G04 #@! TO.N,GND*
X101685000Y-56797000D03*
G04 #@! TO.P,J2,2*
G04 #@! TO.N,Net-(J2-Pad2)*
X99145000Y-56797000D03*
D11*
G04 #@! TO.P,J2,1*
G04 #@! TO.N,+5V*
X96605000Y-56797000D03*
G04 #@! TD*
D12*
G04 #@! TO.P,J1,6*
G04 #@! TO.N,Net-(J1-Pad6)*
X95630000Y-22892500D03*
X102630000Y-22892500D03*
D13*
X96630000Y-25592500D03*
X101630000Y-25592500D03*
G04 #@! TD*
D14*
G04 #@! TO.N,GND*
X97790000Y-24511000D03*
X91440000Y-57404000D03*
X92440000Y-57404000D03*
X93440000Y-57404000D03*
X91440000Y-58404000D03*
X92440000Y-58404000D03*
X93440000Y-58404000D03*
X91440000Y-33020000D03*
X92440000Y-33020000D03*
X91440000Y-35020000D03*
X92440000Y-35020000D03*
X91440000Y-37020000D03*
X92440000Y-37020000D03*
X91440000Y-39020000D03*
X92440000Y-39020000D03*
X91440000Y-41020000D03*
X92440000Y-41020000D03*
X91440000Y-22860000D03*
X92440000Y-22860000D03*
X93440000Y-22860000D03*
X91440000Y-23860000D03*
X92440000Y-23860000D03*
X93440000Y-23860000D03*
X91440000Y-24860000D03*
X92440000Y-24860000D03*
X93440000Y-24860000D03*
X91440000Y-25860000D03*
X92440000Y-25860000D03*
X93440000Y-25860000D03*
X91440000Y-26860000D03*
X92440000Y-26860000D03*
X93440000Y-26860000D03*
G04 #@! TO.N,Net-(C1-Pad1)*
X102108000Y-30988000D03*
X103678457Y-26478000D03*
G04 #@! TO.N,+5V*
X104394000Y-27178000D03*
X106172000Y-29210000D03*
X100370708Y-24605492D03*
X95758000Y-27432000D03*
X95250000Y-42418000D03*
X102616000Y-42672000D03*
X101092000Y-54356000D03*
G04 #@! TO.N,Net-(C4-Pad2)*
X107988003Y-45075000D03*
X108204000Y-29210000D03*
X107988003Y-34759997D03*
G04 #@! TO.N,Net-(J1-Pad3)*
X99060000Y-27305000D03*
X99695000Y-32385000D03*
G04 #@! TO.N,Net-(J1-Pad2)*
X99860003Y-27305000D03*
X100965000Y-32385000D03*
G04 #@! TO.N,PB1*
X101346000Y-52324000D03*
G04 #@! TO.N,PB0*
X101019998Y-49530000D03*
G04 #@! TO.N,PA1*
X100838000Y-46990000D03*
G04 #@! TO.N,PA2*
X100330000Y-45720000D03*
G04 #@! TO.N,RESET*
X104902000Y-52324000D03*
G04 #@! TO.N,RXD*
X98298000Y-36068000D03*
X107188000Y-45075000D03*
G04 #@! TO.N,TXD*
X96266000Y-35560000D03*
X104902000Y-45095000D03*
G04 #@! TD*
D15*
G04 #@! TO.N,GND*
X97746499Y-24467499D02*
X94150501Y-24467499D01*
X97790000Y-24511000D02*
X97746499Y-24467499D01*
D16*
G04 #@! TO.N,Net-(C1-Pad1)*
X102108000Y-30988000D02*
X102616000Y-30988000D01*
X103678457Y-29925543D02*
X103678457Y-26478000D01*
X102616000Y-30988000D02*
X103678457Y-29925543D01*
D15*
G04 #@! TO.N,+5V*
X104394000Y-27178000D02*
X104902000Y-27178000D01*
X104902000Y-27178000D02*
X105410000Y-27178000D01*
X106172000Y-27940000D02*
X106172000Y-29210000D01*
X105410000Y-27178000D02*
X106172000Y-27940000D01*
X97544200Y-27432000D02*
X95758000Y-27432000D01*
X100370708Y-24605492D02*
X97544200Y-27432000D01*
X102362000Y-42418000D02*
X102616000Y-42672000D01*
X95250000Y-42418000D02*
X102362000Y-42418000D01*
D17*
X89090000Y-41970998D02*
X89090000Y-41577000D01*
X96605000Y-49485998D02*
X89090000Y-41970998D01*
X96605000Y-56797000D02*
X96605000Y-49485998D01*
D16*
X99046000Y-54356000D02*
X96605000Y-56797000D01*
X101092000Y-54356000D02*
X99046000Y-54356000D01*
G04 #@! TO.N,Net-(C4-Pad2)*
X107988003Y-29425997D02*
X108204000Y-29210000D01*
X107988003Y-45075000D02*
X107988003Y-34759997D01*
X107988003Y-34759997D02*
X107988003Y-29425997D01*
G04 #@! TO.N,Net-(J1-Pad3)*
X99060000Y-31750000D02*
X99695000Y-32385000D01*
X99060000Y-27305000D02*
X99060000Y-31750000D01*
G04 #@! TO.N,Net-(J1-Pad2)*
X100965000Y-28409997D02*
X100965000Y-32385000D01*
X99860003Y-27305000D02*
X100965000Y-28409997D01*
G04 #@! TO.N,PB1*
X105839000Y-56817000D02*
X109220000Y-56817000D01*
X101346000Y-52324000D02*
X105839000Y-56817000D01*
G04 #@! TO.N,PB0*
X101019998Y-49530000D02*
X105766998Y-54277000D01*
X105766998Y-54277000D02*
X109220000Y-54277000D01*
G04 #@! TO.N,PA1*
X102537000Y-49197000D02*
X109220000Y-49197000D01*
X100838000Y-46990000D02*
X102537000Y-49197000D01*
G04 #@! TO.N,PA2*
X108283000Y-45720000D02*
X109220000Y-46657000D01*
X100330000Y-45720000D02*
X108283000Y-45720000D01*
G04 #@! TO.N,RESET*
X109220000Y-51737000D02*
X109220000Y-51816000D01*
X108712000Y-52324000D02*
X104902000Y-52324000D01*
X109220000Y-51816000D02*
X108712000Y-52324000D01*
G04 #@! TO.N,RXD*
X100091999Y-37978999D02*
X107188000Y-45075000D01*
X100091999Y-37861999D02*
X100091999Y-37978999D01*
X98298000Y-36068000D02*
X100091999Y-37861999D01*
G04 #@! TO.N,TXD*
X104902000Y-44032998D02*
X104902000Y-45095000D01*
X96429002Y-35560000D02*
X104902000Y-44032998D01*
X96266000Y-35560000D02*
X96429002Y-35560000D01*
G04 #@! TD*
D18*
G04 #@! TO.N,GND*
X94483489Y-22067599D02*
X94412870Y-22300398D01*
X94395000Y-22481835D01*
X94395000Y-23303164D01*
X94412870Y-23484601D01*
X94483489Y-23717400D01*
X94598167Y-23931948D01*
X94752498Y-24120002D01*
X94940551Y-24274333D01*
X95155099Y-24389011D01*
X95387898Y-24459630D01*
X95630000Y-24483475D01*
X95872101Y-24459630D01*
X95882035Y-24456616D01*
X95763051Y-24536119D01*
X95573619Y-24725551D01*
X95424784Y-24948299D01*
X95322264Y-25195803D01*
X95270000Y-25458552D01*
X95270000Y-25726448D01*
X95322264Y-25989197D01*
X95424784Y-26236701D01*
X95573619Y-26459449D01*
X95620252Y-26506082D01*
X95485271Y-26532932D01*
X95315111Y-26603414D01*
X95161972Y-26705738D01*
X95031738Y-26835972D01*
X94929414Y-26989111D01*
X94858932Y-27159271D01*
X94823000Y-27339911D01*
X94823000Y-27524089D01*
X94858932Y-27704729D01*
X94929414Y-27874889D01*
X95031738Y-28028028D01*
X95161972Y-28158262D01*
X95315111Y-28260586D01*
X95485271Y-28331068D01*
X95665911Y-28367000D01*
X95850089Y-28367000D01*
X96030729Y-28331068D01*
X96185404Y-28267000D01*
X97503182Y-28267000D01*
X97544200Y-28271040D01*
X97585218Y-28267000D01*
X97585219Y-28267000D01*
X97707889Y-28254918D01*
X97865287Y-28207172D01*
X98010346Y-28129636D01*
X98137491Y-28025291D01*
X98163646Y-27993421D01*
X98300000Y-27857067D01*
X98300001Y-31712668D01*
X98296324Y-31750000D01*
X98300001Y-31787333D01*
X98310998Y-31898986D01*
X98324080Y-31942111D01*
X98354454Y-32042246D01*
X98425026Y-32174276D01*
X98475694Y-32236014D01*
X98520000Y-32290001D01*
X98548998Y-32313799D01*
X98771847Y-32536649D01*
X98795932Y-32657729D01*
X98866414Y-32827889D01*
X98968738Y-32981028D01*
X99098972Y-33111262D01*
X99252111Y-33213586D01*
X99422271Y-33284068D01*
X99602911Y-33320000D01*
X99787089Y-33320000D01*
X99967729Y-33284068D01*
X100137889Y-33213586D01*
X100291028Y-33111262D01*
X100330000Y-33072290D01*
X100368972Y-33111262D01*
X100522111Y-33213586D01*
X100692271Y-33284068D01*
X100872911Y-33320000D01*
X101057089Y-33320000D01*
X101237729Y-33284068D01*
X101407889Y-33213586D01*
X101561028Y-33111262D01*
X101691262Y-32981028D01*
X101793586Y-32827889D01*
X101864068Y-32657729D01*
X101900000Y-32477089D01*
X101900000Y-32292911D01*
X101864068Y-32112271D01*
X101793586Y-31942111D01*
X101726781Y-31842130D01*
X101835271Y-31887068D01*
X102015911Y-31923000D01*
X102200089Y-31923000D01*
X102380729Y-31887068D01*
X102550889Y-31816586D01*
X102653570Y-31747977D01*
X102764986Y-31737003D01*
X102908247Y-31693546D01*
X103040276Y-31622974D01*
X103156001Y-31528001D01*
X103179804Y-31498998D01*
X104189461Y-30489341D01*
X104218458Y-30465544D01*
X104278837Y-30391972D01*
X104313431Y-30349820D01*
X104384003Y-30217790D01*
X104410165Y-30131543D01*
X104427460Y-30074529D01*
X104438457Y-29962876D01*
X104438457Y-29962867D01*
X104442133Y-29925544D01*
X104438457Y-29888221D01*
X104438457Y-28113000D01*
X104486089Y-28113000D01*
X104666729Y-28077068D01*
X104821404Y-28013000D01*
X105064132Y-28013000D01*
X105337000Y-28285869D01*
X105337001Y-28782594D01*
X105272932Y-28937271D01*
X105237000Y-29117911D01*
X105237000Y-29302089D01*
X105272932Y-29482729D01*
X105343414Y-29652889D01*
X105445738Y-29806028D01*
X105575972Y-29936262D01*
X105729111Y-30038586D01*
X105899271Y-30109068D01*
X106079911Y-30145000D01*
X106264089Y-30145000D01*
X106444729Y-30109068D01*
X106614889Y-30038586D01*
X106768028Y-29936262D01*
X106898262Y-29806028D01*
X107000586Y-29652889D01*
X107071068Y-29482729D01*
X107107000Y-29302089D01*
X107107000Y-29117911D01*
X107071068Y-28937271D01*
X107007000Y-28782596D01*
X107007000Y-27981018D01*
X107011040Y-27940000D01*
X106994918Y-27776312D01*
X106973120Y-27704451D01*
X106947172Y-27618913D01*
X106869636Y-27473854D01*
X106850658Y-27450729D01*
X106791439Y-27378570D01*
X106791437Y-27378568D01*
X106765291Y-27346709D01*
X106733433Y-27320564D01*
X106029445Y-26616578D01*
X106003291Y-26584709D01*
X105876146Y-26480364D01*
X105731087Y-26402828D01*
X105573689Y-26355082D01*
X105451019Y-26343000D01*
X105451018Y-26343000D01*
X105410000Y-26338960D01*
X105368982Y-26343000D01*
X104821404Y-26343000D01*
X104666729Y-26278932D01*
X104589106Y-26263492D01*
X104577525Y-26205271D01*
X104507043Y-26035111D01*
X104404719Y-25881972D01*
X104274485Y-25751738D01*
X104121346Y-25649414D01*
X103951186Y-25578932D01*
X103770546Y-25543000D01*
X103586368Y-25543000D01*
X103405728Y-25578932D01*
X103235568Y-25649414D01*
X103082429Y-25751738D01*
X102960770Y-25873397D01*
X102990000Y-25726448D01*
X102990000Y-25458552D01*
X102937736Y-25195803D01*
X102835216Y-24948299D01*
X102686381Y-24725551D01*
X102496949Y-24536119D01*
X102377965Y-24456616D01*
X102387899Y-24459630D01*
X102630000Y-24483475D01*
X102872102Y-24459630D01*
X103104901Y-24389011D01*
X103319449Y-24274333D01*
X103507502Y-24120002D01*
X103661833Y-23931949D01*
X103776511Y-23717401D01*
X103847130Y-23484601D01*
X103865000Y-23303164D01*
X103865000Y-22481835D01*
X103847130Y-22300398D01*
X103776511Y-22067599D01*
X103670358Y-21869000D01*
X107920608Y-21869000D01*
X108732249Y-21941437D01*
X109489774Y-22148672D01*
X110198625Y-22486777D01*
X110836404Y-22945067D01*
X111382946Y-23509055D01*
X111820977Y-24160913D01*
X112136651Y-24880038D01*
X112321206Y-25648768D01*
X112370001Y-26313221D01*
X112370000Y-55850608D01*
X112297563Y-56662249D01*
X112090328Y-57419774D01*
X111752221Y-58128627D01*
X111293928Y-58766410D01*
X110729945Y-59312946D01*
X110078085Y-59750978D01*
X109358963Y-60066651D01*
X108590232Y-60251206D01*
X107925792Y-60300000D01*
X90199392Y-60300000D01*
X89387751Y-60227563D01*
X88630226Y-60020328D01*
X87921373Y-59682221D01*
X87283590Y-59223928D01*
X86737054Y-58659945D01*
X86299022Y-58008085D01*
X85983349Y-57288963D01*
X85798794Y-56520232D01*
X85750000Y-55855792D01*
X85750000Y-35647000D01*
X87601928Y-35647000D01*
X87601928Y-37347000D01*
X87614188Y-37471482D01*
X87650498Y-37591180D01*
X87709463Y-37701494D01*
X87788815Y-37798185D01*
X87885506Y-37877537D01*
X87995820Y-37936502D01*
X88068380Y-37958513D01*
X87936525Y-38090368D01*
X87774010Y-38333589D01*
X87662068Y-38603842D01*
X87605000Y-38890740D01*
X87605000Y-39183260D01*
X87662068Y-39470158D01*
X87774010Y-39740411D01*
X87936525Y-39983632D01*
X88143368Y-40190475D01*
X88317760Y-40307000D01*
X88143368Y-40423525D01*
X87936525Y-40630368D01*
X87774010Y-40873589D01*
X87662068Y-41143842D01*
X87605000Y-41430740D01*
X87605000Y-41723260D01*
X87662068Y-42010158D01*
X87774010Y-42280411D01*
X87936525Y-42523632D01*
X88143368Y-42730475D01*
X88317760Y-42847000D01*
X88143368Y-42963525D01*
X87936525Y-43170368D01*
X87774010Y-43413589D01*
X87662068Y-43683842D01*
X87605000Y-43970740D01*
X87605000Y-44263260D01*
X87662068Y-44550158D01*
X87774010Y-44820411D01*
X87936525Y-45063632D01*
X88143368Y-45270475D01*
X88317760Y-45387000D01*
X88143368Y-45503525D01*
X87936525Y-45710368D01*
X87774010Y-45953589D01*
X87662068Y-46223842D01*
X87605000Y-46510740D01*
X87605000Y-46803260D01*
X87662068Y-47090158D01*
X87774010Y-47360411D01*
X87936525Y-47603632D01*
X88143368Y-47810475D01*
X88317760Y-47927000D01*
X88143368Y-48043525D01*
X87936525Y-48250368D01*
X87774010Y-48493589D01*
X87662068Y-48763842D01*
X87605000Y-49050740D01*
X87605000Y-49343260D01*
X87662068Y-49630158D01*
X87774010Y-49900411D01*
X87936525Y-50143632D01*
X88143368Y-50350475D01*
X88317760Y-50467000D01*
X88143368Y-50583525D01*
X87936525Y-50790368D01*
X87774010Y-51033589D01*
X87662068Y-51303842D01*
X87605000Y-51590740D01*
X87605000Y-51883260D01*
X87662068Y-52170158D01*
X87774010Y-52440411D01*
X87936525Y-52683632D01*
X88143368Y-52890475D01*
X88317760Y-53007000D01*
X88143368Y-53123525D01*
X87936525Y-53330368D01*
X87774010Y-53573589D01*
X87662068Y-53843842D01*
X87605000Y-54130740D01*
X87605000Y-54423260D01*
X87662068Y-54710158D01*
X87774010Y-54980411D01*
X87936525Y-55223632D01*
X88143368Y-55430475D01*
X88317760Y-55547000D01*
X88143368Y-55663525D01*
X87936525Y-55870368D01*
X87774010Y-56113589D01*
X87662068Y-56383842D01*
X87605000Y-56670740D01*
X87605000Y-56963260D01*
X87662068Y-57250158D01*
X87774010Y-57520411D01*
X87936525Y-57763632D01*
X88143368Y-57970475D01*
X88386589Y-58132990D01*
X88656842Y-58244932D01*
X88943740Y-58302000D01*
X89236260Y-58302000D01*
X89523158Y-58244932D01*
X89793411Y-58132990D01*
X90036632Y-57970475D01*
X90243475Y-57763632D01*
X90405990Y-57520411D01*
X90517932Y-57250158D01*
X90575000Y-56963260D01*
X90575000Y-56670740D01*
X90517932Y-56383842D01*
X90405990Y-56113589D01*
X90243475Y-55870368D01*
X90036632Y-55663525D01*
X89862240Y-55547000D01*
X90036632Y-55430475D01*
X90243475Y-55223632D01*
X90405990Y-54980411D01*
X90517932Y-54710158D01*
X90575000Y-54423260D01*
X90575000Y-54130740D01*
X90517932Y-53843842D01*
X90405990Y-53573589D01*
X90243475Y-53330368D01*
X90036632Y-53123525D01*
X89862240Y-53007000D01*
X90036632Y-52890475D01*
X90243475Y-52683632D01*
X90405990Y-52440411D01*
X90517932Y-52170158D01*
X90575000Y-51883260D01*
X90575000Y-51590740D01*
X90517932Y-51303842D01*
X90405990Y-51033589D01*
X90243475Y-50790368D01*
X90036632Y-50583525D01*
X89862240Y-50467000D01*
X90036632Y-50350475D01*
X90243475Y-50143632D01*
X90405990Y-49900411D01*
X90517932Y-49630158D01*
X90575000Y-49343260D01*
X90575000Y-49050740D01*
X90517932Y-48763842D01*
X90405990Y-48493589D01*
X90243475Y-48250368D01*
X90036632Y-48043525D01*
X89862240Y-47927000D01*
X90036632Y-47810475D01*
X90243475Y-47603632D01*
X90405990Y-47360411D01*
X90517932Y-47090158D01*
X90575000Y-46803260D01*
X90575000Y-46510740D01*
X90517932Y-46223842D01*
X90405990Y-45953589D01*
X90243475Y-45710368D01*
X90036632Y-45503525D01*
X89862240Y-45387000D01*
X90036632Y-45270475D01*
X90243475Y-45063632D01*
X90405990Y-44820411D01*
X90426408Y-44771117D01*
X95570001Y-49914710D01*
X95570000Y-55339546D01*
X95510820Y-55357498D01*
X95400506Y-55416463D01*
X95303815Y-55495815D01*
X95224463Y-55592506D01*
X95165498Y-55702820D01*
X95129188Y-55822518D01*
X95116928Y-55947000D01*
X95116928Y-57647000D01*
X95129188Y-57771482D01*
X95165498Y-57891180D01*
X95224463Y-58001494D01*
X95303815Y-58098185D01*
X95400506Y-58177537D01*
X95510820Y-58236502D01*
X95630518Y-58272812D01*
X95755000Y-58285072D01*
X97455000Y-58285072D01*
X97579482Y-58272812D01*
X97699180Y-58236502D01*
X97809494Y-58177537D01*
X97906185Y-58098185D01*
X97985537Y-58001494D01*
X98044502Y-57891180D01*
X98066513Y-57818620D01*
X98198368Y-57950475D01*
X98441589Y-58112990D01*
X98711842Y-58224932D01*
X98998740Y-58282000D01*
X99291260Y-58282000D01*
X99578158Y-58224932D01*
X99848411Y-58112990D01*
X100091632Y-57950475D01*
X100298475Y-57743632D01*
X100420195Y-57561466D01*
X100489822Y-57678355D01*
X100684731Y-57894588D01*
X100918080Y-58068641D01*
X101180901Y-58193825D01*
X101328110Y-58238476D01*
X101558000Y-58117155D01*
X101558000Y-56924000D01*
X101812000Y-56924000D01*
X101812000Y-58117155D01*
X102041890Y-58238476D01*
X102189099Y-58193825D01*
X102451920Y-58068641D01*
X102685269Y-57894588D01*
X102880178Y-57678355D01*
X103029157Y-57428252D01*
X103126481Y-57153891D01*
X103005814Y-56924000D01*
X101812000Y-56924000D01*
X101558000Y-56924000D01*
X101538000Y-56924000D01*
X101538000Y-56670000D01*
X101558000Y-56670000D01*
X101558000Y-55476845D01*
X101812000Y-55476845D01*
X101812000Y-56670000D01*
X103005814Y-56670000D01*
X103126481Y-56440109D01*
X103029157Y-56165748D01*
X102880178Y-55915645D01*
X102685269Y-55699412D01*
X102451920Y-55525359D01*
X102189099Y-55400175D01*
X102041890Y-55355524D01*
X101812000Y-55476845D01*
X101558000Y-55476845D01*
X101328110Y-55355524D01*
X101180901Y-55400175D01*
X100918080Y-55525359D01*
X100684731Y-55699412D01*
X100489822Y-55915645D01*
X100420195Y-56032534D01*
X100298475Y-55850368D01*
X100091632Y-55643525D01*
X99848411Y-55481010D01*
X99578158Y-55369068D01*
X99291260Y-55312000D01*
X99164802Y-55312000D01*
X99360802Y-55116000D01*
X100546465Y-55116000D01*
X100649111Y-55184586D01*
X100819271Y-55255068D01*
X100999911Y-55291000D01*
X101184089Y-55291000D01*
X101364729Y-55255068D01*
X101534889Y-55184586D01*
X101688028Y-55082262D01*
X101818262Y-54952028D01*
X101920586Y-54798889D01*
X101991068Y-54628729D01*
X102027000Y-54448089D01*
X102027000Y-54263911D01*
X101991068Y-54083271D01*
X101963207Y-54016008D01*
X105275201Y-57328003D01*
X105298999Y-57357001D01*
X105327997Y-57380799D01*
X105414724Y-57451974D01*
X105546753Y-57522546D01*
X105690014Y-57566003D01*
X105839000Y-57580677D01*
X105876333Y-57577000D01*
X107941822Y-57577000D01*
X108066525Y-57763632D01*
X108273368Y-57970475D01*
X108516589Y-58132990D01*
X108786842Y-58244932D01*
X109073740Y-58302000D01*
X109366260Y-58302000D01*
X109653158Y-58244932D01*
X109923411Y-58132990D01*
X110166632Y-57970475D01*
X110373475Y-57763632D01*
X110535990Y-57520411D01*
X110647932Y-57250158D01*
X110705000Y-56963260D01*
X110705000Y-56670740D01*
X110647932Y-56383842D01*
X110535990Y-56113589D01*
X110373475Y-55870368D01*
X110166632Y-55663525D01*
X109992240Y-55547000D01*
X110166632Y-55430475D01*
X110373475Y-55223632D01*
X110535990Y-54980411D01*
X110647932Y-54710158D01*
X110705000Y-54423260D01*
X110705000Y-54130740D01*
X110647932Y-53843842D01*
X110535990Y-53573589D01*
X110373475Y-53330368D01*
X110166632Y-53123525D01*
X109992240Y-53007000D01*
X110166632Y-52890475D01*
X110373475Y-52683632D01*
X110535990Y-52440411D01*
X110647932Y-52170158D01*
X110705000Y-51883260D01*
X110705000Y-51590740D01*
X110647932Y-51303842D01*
X110535990Y-51033589D01*
X110373475Y-50790368D01*
X110166632Y-50583525D01*
X109992240Y-50467000D01*
X110166632Y-50350475D01*
X110373475Y-50143632D01*
X110535990Y-49900411D01*
X110647932Y-49630158D01*
X110705000Y-49343260D01*
X110705000Y-49050740D01*
X110647932Y-48763842D01*
X110535990Y-48493589D01*
X110373475Y-48250368D01*
X110166632Y-48043525D01*
X109992240Y-47927000D01*
X110166632Y-47810475D01*
X110373475Y-47603632D01*
X110535990Y-47360411D01*
X110647932Y-47090158D01*
X110705000Y-46803260D01*
X110705000Y-46510740D01*
X110647932Y-46223842D01*
X110535990Y-45953589D01*
X110373475Y-45710368D01*
X110166632Y-45503525D01*
X109992240Y-45387000D01*
X110166632Y-45270475D01*
X110373475Y-45063632D01*
X110535990Y-44820411D01*
X110647932Y-44550158D01*
X110705000Y-44263260D01*
X110705000Y-43970740D01*
X110647932Y-43683842D01*
X110535990Y-43413589D01*
X110373475Y-43170368D01*
X110166632Y-42963525D01*
X109984466Y-42841805D01*
X110101355Y-42772178D01*
X110317588Y-42577269D01*
X110491641Y-42343920D01*
X110616825Y-42081099D01*
X110661476Y-41933890D01*
X110540155Y-41704000D01*
X109347000Y-41704000D01*
X109347000Y-41724000D01*
X109093000Y-41724000D01*
X109093000Y-41704000D01*
X109073000Y-41704000D01*
X109073000Y-41450000D01*
X109093000Y-41450000D01*
X109093000Y-39164000D01*
X109347000Y-39164000D01*
X109347000Y-41450000D01*
X110540155Y-41450000D01*
X110661476Y-41220110D01*
X110616825Y-41072901D01*
X110491641Y-40810080D01*
X110317588Y-40576731D01*
X110101355Y-40381822D01*
X109975745Y-40307000D01*
X110101355Y-40232178D01*
X110317588Y-40037269D01*
X110491641Y-39803920D01*
X110616825Y-39541099D01*
X110661476Y-39393890D01*
X110540155Y-39164000D01*
X109347000Y-39164000D01*
X109093000Y-39164000D01*
X109073000Y-39164000D01*
X109073000Y-38910000D01*
X109093000Y-38910000D01*
X109093000Y-36624000D01*
X109347000Y-36624000D01*
X109347000Y-38910000D01*
X110540155Y-38910000D01*
X110661476Y-38680110D01*
X110616825Y-38532901D01*
X110491641Y-38270080D01*
X110317588Y-38036731D01*
X110233534Y-37960966D01*
X110314180Y-37936502D01*
X110424494Y-37877537D01*
X110521185Y-37798185D01*
X110600537Y-37701494D01*
X110659502Y-37591180D01*
X110695812Y-37471482D01*
X110708072Y-37347000D01*
X110705000Y-36782750D01*
X110546250Y-36624000D01*
X109347000Y-36624000D01*
X109093000Y-36624000D01*
X109073000Y-36624000D01*
X109073000Y-36370000D01*
X109093000Y-36370000D01*
X109093000Y-35170750D01*
X109347000Y-35170750D01*
X109347000Y-36370000D01*
X110546250Y-36370000D01*
X110705000Y-36211250D01*
X110708072Y-35647000D01*
X110695812Y-35522518D01*
X110659502Y-35402820D01*
X110600537Y-35292506D01*
X110521185Y-35195815D01*
X110424494Y-35116463D01*
X110314180Y-35057498D01*
X110194482Y-35021188D01*
X110070000Y-35008928D01*
X109505750Y-35012000D01*
X109347000Y-35170750D01*
X109093000Y-35170750D01*
X108934250Y-35012000D01*
X108891240Y-35011766D01*
X108923003Y-34852086D01*
X108923003Y-34667908D01*
X108887071Y-34487268D01*
X108816589Y-34317108D01*
X108748003Y-34214462D01*
X108748003Y-29971024D01*
X108800028Y-29936262D01*
X108930262Y-29806028D01*
X109032586Y-29652889D01*
X109103068Y-29482729D01*
X109139000Y-29302089D01*
X109139000Y-29117911D01*
X109103068Y-28937271D01*
X109032586Y-28767111D01*
X108930262Y-28613972D01*
X108800028Y-28483738D01*
X108646889Y-28381414D01*
X108476729Y-28310932D01*
X108296089Y-28275000D01*
X108111911Y-28275000D01*
X107931271Y-28310932D01*
X107761111Y-28381414D01*
X107607972Y-28483738D01*
X107477738Y-28613972D01*
X107375414Y-28767111D01*
X107304932Y-28937271D01*
X107269000Y-29117911D01*
X107269000Y-29178115D01*
X107259328Y-29210000D01*
X107239001Y-29277011D01*
X107228004Y-29388664D01*
X107224327Y-29425997D01*
X107228004Y-29463329D01*
X107228003Y-34214461D01*
X107159417Y-34317108D01*
X107088935Y-34487268D01*
X107053003Y-34667908D01*
X107053003Y-34852086D01*
X107088935Y-35032726D01*
X107159417Y-35202886D01*
X107228004Y-35305534D01*
X107228003Y-44040201D01*
X100814958Y-37627157D01*
X100797545Y-37569752D01*
X100726973Y-37437723D01*
X100632000Y-37321998D01*
X100603003Y-37298201D01*
X99221153Y-35916352D01*
X99197068Y-35795271D01*
X99126586Y-35625111D01*
X99024262Y-35471972D01*
X98894028Y-35341738D01*
X98740889Y-35239414D01*
X98570729Y-35168932D01*
X98390089Y-35133000D01*
X98205911Y-35133000D01*
X98025271Y-35168932D01*
X97855111Y-35239414D01*
X97701972Y-35341738D01*
X97571738Y-35471972D01*
X97509268Y-35565465D01*
X97118395Y-35174592D01*
X97094586Y-35117111D01*
X96992262Y-34963972D01*
X96862028Y-34833738D01*
X96708889Y-34731414D01*
X96538729Y-34660932D01*
X96358089Y-34625000D01*
X96173911Y-34625000D01*
X95993271Y-34660932D01*
X95823111Y-34731414D01*
X95669972Y-34833738D01*
X95539738Y-34963972D01*
X95437414Y-35117111D01*
X95366932Y-35287271D01*
X95331000Y-35467911D01*
X95331000Y-35652089D01*
X95366932Y-35832729D01*
X95437414Y-36002889D01*
X95539738Y-36156028D01*
X95669972Y-36286262D01*
X95823111Y-36388586D01*
X95993271Y-36459068D01*
X96173911Y-36495000D01*
X96289201Y-36495000D01*
X101377200Y-41583000D01*
X95677404Y-41583000D01*
X95522729Y-41518932D01*
X95342089Y-41483000D01*
X95157911Y-41483000D01*
X94977271Y-41518932D01*
X94807111Y-41589414D01*
X94653972Y-41691738D01*
X94523738Y-41821972D01*
X94421414Y-41975111D01*
X94350932Y-42145271D01*
X94315000Y-42325911D01*
X94315000Y-42510089D01*
X94350932Y-42690729D01*
X94421414Y-42860889D01*
X94523738Y-43014028D01*
X94653972Y-43144262D01*
X94807111Y-43246586D01*
X94977271Y-43317068D01*
X95157911Y-43353000D01*
X95342089Y-43353000D01*
X95522729Y-43317068D01*
X95677404Y-43253000D01*
X101879697Y-43253000D01*
X101889738Y-43268028D01*
X102019972Y-43398262D01*
X102173111Y-43500586D01*
X102343271Y-43571068D01*
X102523911Y-43607000D01*
X102708089Y-43607000D01*
X102888729Y-43571068D01*
X103058889Y-43500586D01*
X103200299Y-43406099D01*
X104142000Y-44347800D01*
X104142000Y-44549464D01*
X104073414Y-44652111D01*
X104002932Y-44822271D01*
X103975536Y-44960000D01*
X100875535Y-44960000D01*
X100772889Y-44891414D01*
X100602729Y-44820932D01*
X100422089Y-44785000D01*
X100237911Y-44785000D01*
X100057271Y-44820932D01*
X99887111Y-44891414D01*
X99733972Y-44993738D01*
X99603738Y-45123972D01*
X99501414Y-45277111D01*
X99430932Y-45447271D01*
X99395000Y-45627911D01*
X99395000Y-45812089D01*
X99430932Y-45992729D01*
X99501414Y-46162889D01*
X99603738Y-46316028D01*
X99733972Y-46446262D01*
X99887111Y-46548586D01*
X99990982Y-46591610D01*
X99938932Y-46717271D01*
X99903000Y-46897911D01*
X99903000Y-47082089D01*
X99938932Y-47262729D01*
X100009414Y-47432889D01*
X100111738Y-47586028D01*
X100241972Y-47716262D01*
X100395111Y-47818586D01*
X100565271Y-47889068D01*
X100572046Y-47890416D01*
X101114879Y-48595555D01*
X101112087Y-48595000D01*
X100927909Y-48595000D01*
X100747269Y-48630932D01*
X100577109Y-48701414D01*
X100423970Y-48803738D01*
X100293736Y-48933972D01*
X100191412Y-49087111D01*
X100120930Y-49257271D01*
X100084998Y-49437911D01*
X100084998Y-49622089D01*
X100120930Y-49802729D01*
X100191412Y-49972889D01*
X100293736Y-50126028D01*
X100423970Y-50256262D01*
X100577109Y-50358586D01*
X100747269Y-50429068D01*
X100868350Y-50453153D01*
X105203199Y-54788003D01*
X105226997Y-54817001D01*
X105342722Y-54911974D01*
X105474751Y-54982546D01*
X105618012Y-55026003D01*
X105729665Y-55037000D01*
X105729673Y-55037000D01*
X105766998Y-55040676D01*
X105804323Y-55037000D01*
X107941822Y-55037000D01*
X108066525Y-55223632D01*
X108273368Y-55430475D01*
X108447760Y-55547000D01*
X108273368Y-55663525D01*
X108066525Y-55870368D01*
X107941822Y-56057000D01*
X106153802Y-56057000D01*
X102269153Y-52172352D01*
X102245068Y-52051271D01*
X102174586Y-51881111D01*
X102072262Y-51727972D01*
X101942028Y-51597738D01*
X101788889Y-51495414D01*
X101618729Y-51424932D01*
X101438089Y-51389000D01*
X101253911Y-51389000D01*
X101073271Y-51424932D01*
X100903111Y-51495414D01*
X100749972Y-51597738D01*
X100619738Y-51727972D01*
X100517414Y-51881111D01*
X100446932Y-52051271D01*
X100411000Y-52231911D01*
X100411000Y-52416089D01*
X100446932Y-52596729D01*
X100517414Y-52766889D01*
X100619738Y-52920028D01*
X100749972Y-53050262D01*
X100903111Y-53152586D01*
X101073271Y-53223068D01*
X101194352Y-53247153D01*
X101431992Y-53484793D01*
X101364729Y-53456932D01*
X101184089Y-53421000D01*
X100999911Y-53421000D01*
X100819271Y-53456932D01*
X100649111Y-53527414D01*
X100546465Y-53596000D01*
X99083322Y-53596000D01*
X99045999Y-53592324D01*
X99008676Y-53596000D01*
X99008667Y-53596000D01*
X98897014Y-53606997D01*
X98753753Y-53650454D01*
X98621724Y-53721026D01*
X98505999Y-53815999D01*
X98482201Y-53844997D01*
X97640000Y-54687198D01*
X97640000Y-49536833D01*
X97645007Y-49485998D01*
X97631217Y-49345986D01*
X97625024Y-49283103D01*
X97565841Y-49088005D01*
X97483509Y-48933972D01*
X97469734Y-48908200D01*
X97372803Y-48790090D01*
X97340396Y-48750602D01*
X97300908Y-48718195D01*
X90530365Y-41947653D01*
X90575000Y-41723260D01*
X90575000Y-41430740D01*
X90517932Y-41143842D01*
X90405990Y-40873589D01*
X90243475Y-40630368D01*
X90036632Y-40423525D01*
X89862240Y-40307000D01*
X90036632Y-40190475D01*
X90243475Y-39983632D01*
X90405990Y-39740411D01*
X90517932Y-39470158D01*
X90575000Y-39183260D01*
X90575000Y-38890740D01*
X90517932Y-38603842D01*
X90405990Y-38333589D01*
X90243475Y-38090368D01*
X90111620Y-37958513D01*
X90184180Y-37936502D01*
X90294494Y-37877537D01*
X90391185Y-37798185D01*
X90470537Y-37701494D01*
X90529502Y-37591180D01*
X90565812Y-37471482D01*
X90578072Y-37347000D01*
X90578072Y-35647000D01*
X90565812Y-35522518D01*
X90529502Y-35402820D01*
X90470537Y-35292506D01*
X90391185Y-35195815D01*
X90294494Y-35116463D01*
X90184180Y-35057498D01*
X90064482Y-35021188D01*
X89940000Y-35008928D01*
X88240000Y-35008928D01*
X88115518Y-35021188D01*
X87995820Y-35057498D01*
X87885506Y-35116463D01*
X87788815Y-35195815D01*
X87709463Y-35292506D01*
X87650498Y-35402820D01*
X87614188Y-35522518D01*
X87601928Y-35647000D01*
X85750000Y-35647000D01*
X85750000Y-26318392D01*
X85822437Y-25506751D01*
X86029672Y-24749226D01*
X86367777Y-24040375D01*
X86826067Y-23402596D01*
X87390055Y-22856054D01*
X88041913Y-22418023D01*
X88761038Y-22102349D01*
X89529768Y-21917794D01*
X90194207Y-21869000D01*
X94589643Y-21869000D01*
X94483489Y-22067599D01*
G04 #@! TA.AperFunction,Conductor*
D19*
G36*
X94483489Y-22067599D02*
G01*
X94412870Y-22300398D01*
X94395000Y-22481835D01*
X94395000Y-23303164D01*
X94412870Y-23484601D01*
X94483489Y-23717400D01*
X94598167Y-23931948D01*
X94752498Y-24120002D01*
X94940551Y-24274333D01*
X95155099Y-24389011D01*
X95387898Y-24459630D01*
X95630000Y-24483475D01*
X95872101Y-24459630D01*
X95882035Y-24456616D01*
X95763051Y-24536119D01*
X95573619Y-24725551D01*
X95424784Y-24948299D01*
X95322264Y-25195803D01*
X95270000Y-25458552D01*
X95270000Y-25726448D01*
X95322264Y-25989197D01*
X95424784Y-26236701D01*
X95573619Y-26459449D01*
X95620252Y-26506082D01*
X95485271Y-26532932D01*
X95315111Y-26603414D01*
X95161972Y-26705738D01*
X95031738Y-26835972D01*
X94929414Y-26989111D01*
X94858932Y-27159271D01*
X94823000Y-27339911D01*
X94823000Y-27524089D01*
X94858932Y-27704729D01*
X94929414Y-27874889D01*
X95031738Y-28028028D01*
X95161972Y-28158262D01*
X95315111Y-28260586D01*
X95485271Y-28331068D01*
X95665911Y-28367000D01*
X95850089Y-28367000D01*
X96030729Y-28331068D01*
X96185404Y-28267000D01*
X97503182Y-28267000D01*
X97544200Y-28271040D01*
X97585218Y-28267000D01*
X97585219Y-28267000D01*
X97707889Y-28254918D01*
X97865287Y-28207172D01*
X98010346Y-28129636D01*
X98137491Y-28025291D01*
X98163646Y-27993421D01*
X98300000Y-27857067D01*
X98300001Y-31712668D01*
X98296324Y-31750000D01*
X98300001Y-31787333D01*
X98310998Y-31898986D01*
X98324080Y-31942111D01*
X98354454Y-32042246D01*
X98425026Y-32174276D01*
X98475694Y-32236014D01*
X98520000Y-32290001D01*
X98548998Y-32313799D01*
X98771847Y-32536649D01*
X98795932Y-32657729D01*
X98866414Y-32827889D01*
X98968738Y-32981028D01*
X99098972Y-33111262D01*
X99252111Y-33213586D01*
X99422271Y-33284068D01*
X99602911Y-33320000D01*
X99787089Y-33320000D01*
X99967729Y-33284068D01*
X100137889Y-33213586D01*
X100291028Y-33111262D01*
X100330000Y-33072290D01*
X100368972Y-33111262D01*
X100522111Y-33213586D01*
X100692271Y-33284068D01*
X100872911Y-33320000D01*
X101057089Y-33320000D01*
X101237729Y-33284068D01*
X101407889Y-33213586D01*
X101561028Y-33111262D01*
X101691262Y-32981028D01*
X101793586Y-32827889D01*
X101864068Y-32657729D01*
X101900000Y-32477089D01*
X101900000Y-32292911D01*
X101864068Y-32112271D01*
X101793586Y-31942111D01*
X101726781Y-31842130D01*
X101835271Y-31887068D01*
X102015911Y-31923000D01*
X102200089Y-31923000D01*
X102380729Y-31887068D01*
X102550889Y-31816586D01*
X102653570Y-31747977D01*
X102764986Y-31737003D01*
X102908247Y-31693546D01*
X103040276Y-31622974D01*
X103156001Y-31528001D01*
X103179804Y-31498998D01*
X104189461Y-30489341D01*
X104218458Y-30465544D01*
X104278837Y-30391972D01*
X104313431Y-30349820D01*
X104384003Y-30217790D01*
X104410165Y-30131543D01*
X104427460Y-30074529D01*
X104438457Y-29962876D01*
X104438457Y-29962867D01*
X104442133Y-29925544D01*
X104438457Y-29888221D01*
X104438457Y-28113000D01*
X104486089Y-28113000D01*
X104666729Y-28077068D01*
X104821404Y-28013000D01*
X105064132Y-28013000D01*
X105337000Y-28285869D01*
X105337001Y-28782594D01*
X105272932Y-28937271D01*
X105237000Y-29117911D01*
X105237000Y-29302089D01*
X105272932Y-29482729D01*
X105343414Y-29652889D01*
X105445738Y-29806028D01*
X105575972Y-29936262D01*
X105729111Y-30038586D01*
X105899271Y-30109068D01*
X106079911Y-30145000D01*
X106264089Y-30145000D01*
X106444729Y-30109068D01*
X106614889Y-30038586D01*
X106768028Y-29936262D01*
X106898262Y-29806028D01*
X107000586Y-29652889D01*
X107071068Y-29482729D01*
X107107000Y-29302089D01*
X107107000Y-29117911D01*
X107071068Y-28937271D01*
X107007000Y-28782596D01*
X107007000Y-27981018D01*
X107011040Y-27940000D01*
X106994918Y-27776312D01*
X106973120Y-27704451D01*
X106947172Y-27618913D01*
X106869636Y-27473854D01*
X106850658Y-27450729D01*
X106791439Y-27378570D01*
X106791437Y-27378568D01*
X106765291Y-27346709D01*
X106733433Y-27320564D01*
X106029445Y-26616578D01*
X106003291Y-26584709D01*
X105876146Y-26480364D01*
X105731087Y-26402828D01*
X105573689Y-26355082D01*
X105451019Y-26343000D01*
X105451018Y-26343000D01*
X105410000Y-26338960D01*
X105368982Y-26343000D01*
X104821404Y-26343000D01*
X104666729Y-26278932D01*
X104589106Y-26263492D01*
X104577525Y-26205271D01*
X104507043Y-26035111D01*
X104404719Y-25881972D01*
X104274485Y-25751738D01*
X104121346Y-25649414D01*
X103951186Y-25578932D01*
X103770546Y-25543000D01*
X103586368Y-25543000D01*
X103405728Y-25578932D01*
X103235568Y-25649414D01*
X103082429Y-25751738D01*
X102960770Y-25873397D01*
X102990000Y-25726448D01*
X102990000Y-25458552D01*
X102937736Y-25195803D01*
X102835216Y-24948299D01*
X102686381Y-24725551D01*
X102496949Y-24536119D01*
X102377965Y-24456616D01*
X102387899Y-24459630D01*
X102630000Y-24483475D01*
X102872102Y-24459630D01*
X103104901Y-24389011D01*
X103319449Y-24274333D01*
X103507502Y-24120002D01*
X103661833Y-23931949D01*
X103776511Y-23717401D01*
X103847130Y-23484601D01*
X103865000Y-23303164D01*
X103865000Y-22481835D01*
X103847130Y-22300398D01*
X103776511Y-22067599D01*
X103670358Y-21869000D01*
X107920608Y-21869000D01*
X108732249Y-21941437D01*
X109489774Y-22148672D01*
X110198625Y-22486777D01*
X110836404Y-22945067D01*
X111382946Y-23509055D01*
X111820977Y-24160913D01*
X112136651Y-24880038D01*
X112321206Y-25648768D01*
X112370001Y-26313221D01*
X112370000Y-55850608D01*
X112297563Y-56662249D01*
X112090328Y-57419774D01*
X111752221Y-58128627D01*
X111293928Y-58766410D01*
X110729945Y-59312946D01*
X110078085Y-59750978D01*
X109358963Y-60066651D01*
X108590232Y-60251206D01*
X107925792Y-60300000D01*
X90199392Y-60300000D01*
X89387751Y-60227563D01*
X88630226Y-60020328D01*
X87921373Y-59682221D01*
X87283590Y-59223928D01*
X86737054Y-58659945D01*
X86299022Y-58008085D01*
X85983349Y-57288963D01*
X85798794Y-56520232D01*
X85750000Y-55855792D01*
X85750000Y-35647000D01*
X87601928Y-35647000D01*
X87601928Y-37347000D01*
X87614188Y-37471482D01*
X87650498Y-37591180D01*
X87709463Y-37701494D01*
X87788815Y-37798185D01*
X87885506Y-37877537D01*
X87995820Y-37936502D01*
X88068380Y-37958513D01*
X87936525Y-38090368D01*
X87774010Y-38333589D01*
X87662068Y-38603842D01*
X87605000Y-38890740D01*
X87605000Y-39183260D01*
X87662068Y-39470158D01*
X87774010Y-39740411D01*
X87936525Y-39983632D01*
X88143368Y-40190475D01*
X88317760Y-40307000D01*
X88143368Y-40423525D01*
X87936525Y-40630368D01*
X87774010Y-40873589D01*
X87662068Y-41143842D01*
X87605000Y-41430740D01*
X87605000Y-41723260D01*
X87662068Y-42010158D01*
X87774010Y-42280411D01*
X87936525Y-42523632D01*
X88143368Y-42730475D01*
X88317760Y-42847000D01*
X88143368Y-42963525D01*
X87936525Y-43170368D01*
X87774010Y-43413589D01*
X87662068Y-43683842D01*
X87605000Y-43970740D01*
X87605000Y-44263260D01*
X87662068Y-44550158D01*
X87774010Y-44820411D01*
X87936525Y-45063632D01*
X88143368Y-45270475D01*
X88317760Y-45387000D01*
X88143368Y-45503525D01*
X87936525Y-45710368D01*
X87774010Y-45953589D01*
X87662068Y-46223842D01*
X87605000Y-46510740D01*
X87605000Y-46803260D01*
X87662068Y-47090158D01*
X87774010Y-47360411D01*
X87936525Y-47603632D01*
X88143368Y-47810475D01*
X88317760Y-47927000D01*
X88143368Y-48043525D01*
X87936525Y-48250368D01*
X87774010Y-48493589D01*
X87662068Y-48763842D01*
X87605000Y-49050740D01*
X87605000Y-49343260D01*
X87662068Y-49630158D01*
X87774010Y-49900411D01*
X87936525Y-50143632D01*
X88143368Y-50350475D01*
X88317760Y-50467000D01*
X88143368Y-50583525D01*
X87936525Y-50790368D01*
X87774010Y-51033589D01*
X87662068Y-51303842D01*
X87605000Y-51590740D01*
X87605000Y-51883260D01*
X87662068Y-52170158D01*
X87774010Y-52440411D01*
X87936525Y-52683632D01*
X88143368Y-52890475D01*
X88317760Y-53007000D01*
X88143368Y-53123525D01*
X87936525Y-53330368D01*
X87774010Y-53573589D01*
X87662068Y-53843842D01*
X87605000Y-54130740D01*
X87605000Y-54423260D01*
X87662068Y-54710158D01*
X87774010Y-54980411D01*
X87936525Y-55223632D01*
X88143368Y-55430475D01*
X88317760Y-55547000D01*
X88143368Y-55663525D01*
X87936525Y-55870368D01*
X87774010Y-56113589D01*
X87662068Y-56383842D01*
X87605000Y-56670740D01*
X87605000Y-56963260D01*
X87662068Y-57250158D01*
X87774010Y-57520411D01*
X87936525Y-57763632D01*
X88143368Y-57970475D01*
X88386589Y-58132990D01*
X88656842Y-58244932D01*
X88943740Y-58302000D01*
X89236260Y-58302000D01*
X89523158Y-58244932D01*
X89793411Y-58132990D01*
X90036632Y-57970475D01*
X90243475Y-57763632D01*
X90405990Y-57520411D01*
X90517932Y-57250158D01*
X90575000Y-56963260D01*
X90575000Y-56670740D01*
X90517932Y-56383842D01*
X90405990Y-56113589D01*
X90243475Y-55870368D01*
X90036632Y-55663525D01*
X89862240Y-55547000D01*
X90036632Y-55430475D01*
X90243475Y-55223632D01*
X90405990Y-54980411D01*
X90517932Y-54710158D01*
X90575000Y-54423260D01*
X90575000Y-54130740D01*
X90517932Y-53843842D01*
X90405990Y-53573589D01*
X90243475Y-53330368D01*
X90036632Y-53123525D01*
X89862240Y-53007000D01*
X90036632Y-52890475D01*
X90243475Y-52683632D01*
X90405990Y-52440411D01*
X90517932Y-52170158D01*
X90575000Y-51883260D01*
X90575000Y-51590740D01*
X90517932Y-51303842D01*
X90405990Y-51033589D01*
X90243475Y-50790368D01*
X90036632Y-50583525D01*
X89862240Y-50467000D01*
X90036632Y-50350475D01*
X90243475Y-50143632D01*
X90405990Y-49900411D01*
X90517932Y-49630158D01*
X90575000Y-49343260D01*
X90575000Y-49050740D01*
X90517932Y-48763842D01*
X90405990Y-48493589D01*
X90243475Y-48250368D01*
X90036632Y-48043525D01*
X89862240Y-47927000D01*
X90036632Y-47810475D01*
X90243475Y-47603632D01*
X90405990Y-47360411D01*
X90517932Y-47090158D01*
X90575000Y-46803260D01*
X90575000Y-46510740D01*
X90517932Y-46223842D01*
X90405990Y-45953589D01*
X90243475Y-45710368D01*
X90036632Y-45503525D01*
X89862240Y-45387000D01*
X90036632Y-45270475D01*
X90243475Y-45063632D01*
X90405990Y-44820411D01*
X90426408Y-44771117D01*
X95570001Y-49914710D01*
X95570000Y-55339546D01*
X95510820Y-55357498D01*
X95400506Y-55416463D01*
X95303815Y-55495815D01*
X95224463Y-55592506D01*
X95165498Y-55702820D01*
X95129188Y-55822518D01*
X95116928Y-55947000D01*
X95116928Y-57647000D01*
X95129188Y-57771482D01*
X95165498Y-57891180D01*
X95224463Y-58001494D01*
X95303815Y-58098185D01*
X95400506Y-58177537D01*
X95510820Y-58236502D01*
X95630518Y-58272812D01*
X95755000Y-58285072D01*
X97455000Y-58285072D01*
X97579482Y-58272812D01*
X97699180Y-58236502D01*
X97809494Y-58177537D01*
X97906185Y-58098185D01*
X97985537Y-58001494D01*
X98044502Y-57891180D01*
X98066513Y-57818620D01*
X98198368Y-57950475D01*
X98441589Y-58112990D01*
X98711842Y-58224932D01*
X98998740Y-58282000D01*
X99291260Y-58282000D01*
X99578158Y-58224932D01*
X99848411Y-58112990D01*
X100091632Y-57950475D01*
X100298475Y-57743632D01*
X100420195Y-57561466D01*
X100489822Y-57678355D01*
X100684731Y-57894588D01*
X100918080Y-58068641D01*
X101180901Y-58193825D01*
X101328110Y-58238476D01*
X101558000Y-58117155D01*
X101558000Y-56924000D01*
X101812000Y-56924000D01*
X101812000Y-58117155D01*
X102041890Y-58238476D01*
X102189099Y-58193825D01*
X102451920Y-58068641D01*
X102685269Y-57894588D01*
X102880178Y-57678355D01*
X103029157Y-57428252D01*
X103126481Y-57153891D01*
X103005814Y-56924000D01*
X101812000Y-56924000D01*
X101558000Y-56924000D01*
X101538000Y-56924000D01*
X101538000Y-56670000D01*
X101558000Y-56670000D01*
X101558000Y-55476845D01*
X101812000Y-55476845D01*
X101812000Y-56670000D01*
X103005814Y-56670000D01*
X103126481Y-56440109D01*
X103029157Y-56165748D01*
X102880178Y-55915645D01*
X102685269Y-55699412D01*
X102451920Y-55525359D01*
X102189099Y-55400175D01*
X102041890Y-55355524D01*
X101812000Y-55476845D01*
X101558000Y-55476845D01*
X101328110Y-55355524D01*
X101180901Y-55400175D01*
X100918080Y-55525359D01*
X100684731Y-55699412D01*
X100489822Y-55915645D01*
X100420195Y-56032534D01*
X100298475Y-55850368D01*
X100091632Y-55643525D01*
X99848411Y-55481010D01*
X99578158Y-55369068D01*
X99291260Y-55312000D01*
X99164802Y-55312000D01*
X99360802Y-55116000D01*
X100546465Y-55116000D01*
X100649111Y-55184586D01*
X100819271Y-55255068D01*
X100999911Y-55291000D01*
X101184089Y-55291000D01*
X101364729Y-55255068D01*
X101534889Y-55184586D01*
X101688028Y-55082262D01*
X101818262Y-54952028D01*
X101920586Y-54798889D01*
X101991068Y-54628729D01*
X102027000Y-54448089D01*
X102027000Y-54263911D01*
X101991068Y-54083271D01*
X101963207Y-54016008D01*
X105275201Y-57328003D01*
X105298999Y-57357001D01*
X105327997Y-57380799D01*
X105414724Y-57451974D01*
X105546753Y-57522546D01*
X105690014Y-57566003D01*
X105839000Y-57580677D01*
X105876333Y-57577000D01*
X107941822Y-57577000D01*
X108066525Y-57763632D01*
X108273368Y-57970475D01*
X108516589Y-58132990D01*
X108786842Y-58244932D01*
X109073740Y-58302000D01*
X109366260Y-58302000D01*
X109653158Y-58244932D01*
X109923411Y-58132990D01*
X110166632Y-57970475D01*
X110373475Y-57763632D01*
X110535990Y-57520411D01*
X110647932Y-57250158D01*
X110705000Y-56963260D01*
X110705000Y-56670740D01*
X110647932Y-56383842D01*
X110535990Y-56113589D01*
X110373475Y-55870368D01*
X110166632Y-55663525D01*
X109992240Y-55547000D01*
X110166632Y-55430475D01*
X110373475Y-55223632D01*
X110535990Y-54980411D01*
X110647932Y-54710158D01*
X110705000Y-54423260D01*
X110705000Y-54130740D01*
X110647932Y-53843842D01*
X110535990Y-53573589D01*
X110373475Y-53330368D01*
X110166632Y-53123525D01*
X109992240Y-53007000D01*
X110166632Y-52890475D01*
X110373475Y-52683632D01*
X110535990Y-52440411D01*
X110647932Y-52170158D01*
X110705000Y-51883260D01*
X110705000Y-51590740D01*
X110647932Y-51303842D01*
X110535990Y-51033589D01*
X110373475Y-50790368D01*
X110166632Y-50583525D01*
X109992240Y-50467000D01*
X110166632Y-50350475D01*
X110373475Y-50143632D01*
X110535990Y-49900411D01*
X110647932Y-49630158D01*
X110705000Y-49343260D01*
X110705000Y-49050740D01*
X110647932Y-48763842D01*
X110535990Y-48493589D01*
X110373475Y-48250368D01*
X110166632Y-48043525D01*
X109992240Y-47927000D01*
X110166632Y-47810475D01*
X110373475Y-47603632D01*
X110535990Y-47360411D01*
X110647932Y-47090158D01*
X110705000Y-46803260D01*
X110705000Y-46510740D01*
X110647932Y-46223842D01*
X110535990Y-45953589D01*
X110373475Y-45710368D01*
X110166632Y-45503525D01*
X109992240Y-45387000D01*
X110166632Y-45270475D01*
X110373475Y-45063632D01*
X110535990Y-44820411D01*
X110647932Y-44550158D01*
X110705000Y-44263260D01*
X110705000Y-43970740D01*
X110647932Y-43683842D01*
X110535990Y-43413589D01*
X110373475Y-43170368D01*
X110166632Y-42963525D01*
X109984466Y-42841805D01*
X110101355Y-42772178D01*
X110317588Y-42577269D01*
X110491641Y-42343920D01*
X110616825Y-42081099D01*
X110661476Y-41933890D01*
X110540155Y-41704000D01*
X109347000Y-41704000D01*
X109347000Y-41724000D01*
X109093000Y-41724000D01*
X109093000Y-41704000D01*
X109073000Y-41704000D01*
X109073000Y-41450000D01*
X109093000Y-41450000D01*
X109093000Y-39164000D01*
X109347000Y-39164000D01*
X109347000Y-41450000D01*
X110540155Y-41450000D01*
X110661476Y-41220110D01*
X110616825Y-41072901D01*
X110491641Y-40810080D01*
X110317588Y-40576731D01*
X110101355Y-40381822D01*
X109975745Y-40307000D01*
X110101355Y-40232178D01*
X110317588Y-40037269D01*
X110491641Y-39803920D01*
X110616825Y-39541099D01*
X110661476Y-39393890D01*
X110540155Y-39164000D01*
X109347000Y-39164000D01*
X109093000Y-39164000D01*
X109073000Y-39164000D01*
X109073000Y-38910000D01*
X109093000Y-38910000D01*
X109093000Y-36624000D01*
X109347000Y-36624000D01*
X109347000Y-38910000D01*
X110540155Y-38910000D01*
X110661476Y-38680110D01*
X110616825Y-38532901D01*
X110491641Y-38270080D01*
X110317588Y-38036731D01*
X110233534Y-37960966D01*
X110314180Y-37936502D01*
X110424494Y-37877537D01*
X110521185Y-37798185D01*
X110600537Y-37701494D01*
X110659502Y-37591180D01*
X110695812Y-37471482D01*
X110708072Y-37347000D01*
X110705000Y-36782750D01*
X110546250Y-36624000D01*
X109347000Y-36624000D01*
X109093000Y-36624000D01*
X109073000Y-36624000D01*
X109073000Y-36370000D01*
X109093000Y-36370000D01*
X109093000Y-35170750D01*
X109347000Y-35170750D01*
X109347000Y-36370000D01*
X110546250Y-36370000D01*
X110705000Y-36211250D01*
X110708072Y-35647000D01*
X110695812Y-35522518D01*
X110659502Y-35402820D01*
X110600537Y-35292506D01*
X110521185Y-35195815D01*
X110424494Y-35116463D01*
X110314180Y-35057498D01*
X110194482Y-35021188D01*
X110070000Y-35008928D01*
X109505750Y-35012000D01*
X109347000Y-35170750D01*
X109093000Y-35170750D01*
X108934250Y-35012000D01*
X108891240Y-35011766D01*
X108923003Y-34852086D01*
X108923003Y-34667908D01*
X108887071Y-34487268D01*
X108816589Y-34317108D01*
X108748003Y-34214462D01*
X108748003Y-29971024D01*
X108800028Y-29936262D01*
X108930262Y-29806028D01*
X109032586Y-29652889D01*
X109103068Y-29482729D01*
X109139000Y-29302089D01*
X109139000Y-29117911D01*
X109103068Y-28937271D01*
X109032586Y-28767111D01*
X108930262Y-28613972D01*
X108800028Y-28483738D01*
X108646889Y-28381414D01*
X108476729Y-28310932D01*
X108296089Y-28275000D01*
X108111911Y-28275000D01*
X107931271Y-28310932D01*
X107761111Y-28381414D01*
X107607972Y-28483738D01*
X107477738Y-28613972D01*
X107375414Y-28767111D01*
X107304932Y-28937271D01*
X107269000Y-29117911D01*
X107269000Y-29178115D01*
X107259328Y-29210000D01*
X107239001Y-29277011D01*
X107228004Y-29388664D01*
X107224327Y-29425997D01*
X107228004Y-29463329D01*
X107228003Y-34214461D01*
X107159417Y-34317108D01*
X107088935Y-34487268D01*
X107053003Y-34667908D01*
X107053003Y-34852086D01*
X107088935Y-35032726D01*
X107159417Y-35202886D01*
X107228004Y-35305534D01*
X107228003Y-44040201D01*
X100814958Y-37627157D01*
X100797545Y-37569752D01*
X100726973Y-37437723D01*
X100632000Y-37321998D01*
X100603003Y-37298201D01*
X99221153Y-35916352D01*
X99197068Y-35795271D01*
X99126586Y-35625111D01*
X99024262Y-35471972D01*
X98894028Y-35341738D01*
X98740889Y-35239414D01*
X98570729Y-35168932D01*
X98390089Y-35133000D01*
X98205911Y-35133000D01*
X98025271Y-35168932D01*
X97855111Y-35239414D01*
X97701972Y-35341738D01*
X97571738Y-35471972D01*
X97509268Y-35565465D01*
X97118395Y-35174592D01*
X97094586Y-35117111D01*
X96992262Y-34963972D01*
X96862028Y-34833738D01*
X96708889Y-34731414D01*
X96538729Y-34660932D01*
X96358089Y-34625000D01*
X96173911Y-34625000D01*
X95993271Y-34660932D01*
X95823111Y-34731414D01*
X95669972Y-34833738D01*
X95539738Y-34963972D01*
X95437414Y-35117111D01*
X95366932Y-35287271D01*
X95331000Y-35467911D01*
X95331000Y-35652089D01*
X95366932Y-35832729D01*
X95437414Y-36002889D01*
X95539738Y-36156028D01*
X95669972Y-36286262D01*
X95823111Y-36388586D01*
X95993271Y-36459068D01*
X96173911Y-36495000D01*
X96289201Y-36495000D01*
X101377200Y-41583000D01*
X95677404Y-41583000D01*
X95522729Y-41518932D01*
X95342089Y-41483000D01*
X95157911Y-41483000D01*
X94977271Y-41518932D01*
X94807111Y-41589414D01*
X94653972Y-41691738D01*
X94523738Y-41821972D01*
X94421414Y-41975111D01*
X94350932Y-42145271D01*
X94315000Y-42325911D01*
X94315000Y-42510089D01*
X94350932Y-42690729D01*
X94421414Y-42860889D01*
X94523738Y-43014028D01*
X94653972Y-43144262D01*
X94807111Y-43246586D01*
X94977271Y-43317068D01*
X95157911Y-43353000D01*
X95342089Y-43353000D01*
X95522729Y-43317068D01*
X95677404Y-43253000D01*
X101879697Y-43253000D01*
X101889738Y-43268028D01*
X102019972Y-43398262D01*
X102173111Y-43500586D01*
X102343271Y-43571068D01*
X102523911Y-43607000D01*
X102708089Y-43607000D01*
X102888729Y-43571068D01*
X103058889Y-43500586D01*
X103200299Y-43406099D01*
X104142000Y-44347800D01*
X104142000Y-44549464D01*
X104073414Y-44652111D01*
X104002932Y-44822271D01*
X103975536Y-44960000D01*
X100875535Y-44960000D01*
X100772889Y-44891414D01*
X100602729Y-44820932D01*
X100422089Y-44785000D01*
X100237911Y-44785000D01*
X100057271Y-44820932D01*
X99887111Y-44891414D01*
X99733972Y-44993738D01*
X99603738Y-45123972D01*
X99501414Y-45277111D01*
X99430932Y-45447271D01*
X99395000Y-45627911D01*
X99395000Y-45812089D01*
X99430932Y-45992729D01*
X99501414Y-46162889D01*
X99603738Y-46316028D01*
X99733972Y-46446262D01*
X99887111Y-46548586D01*
X99990982Y-46591610D01*
X99938932Y-46717271D01*
X99903000Y-46897911D01*
X99903000Y-47082089D01*
X99938932Y-47262729D01*
X100009414Y-47432889D01*
X100111738Y-47586028D01*
X100241972Y-47716262D01*
X100395111Y-47818586D01*
X100565271Y-47889068D01*
X100572046Y-47890416D01*
X101114879Y-48595555D01*
X101112087Y-48595000D01*
X100927909Y-48595000D01*
X100747269Y-48630932D01*
X100577109Y-48701414D01*
X100423970Y-48803738D01*
X100293736Y-48933972D01*
X100191412Y-49087111D01*
X100120930Y-49257271D01*
X100084998Y-49437911D01*
X100084998Y-49622089D01*
X100120930Y-49802729D01*
X100191412Y-49972889D01*
X100293736Y-50126028D01*
X100423970Y-50256262D01*
X100577109Y-50358586D01*
X100747269Y-50429068D01*
X100868350Y-50453153D01*
X105203199Y-54788003D01*
X105226997Y-54817001D01*
X105342722Y-54911974D01*
X105474751Y-54982546D01*
X105618012Y-55026003D01*
X105729665Y-55037000D01*
X105729673Y-55037000D01*
X105766998Y-55040676D01*
X105804323Y-55037000D01*
X107941822Y-55037000D01*
X108066525Y-55223632D01*
X108273368Y-55430475D01*
X108447760Y-55547000D01*
X108273368Y-55663525D01*
X108066525Y-55870368D01*
X107941822Y-56057000D01*
X106153802Y-56057000D01*
X102269153Y-52172352D01*
X102245068Y-52051271D01*
X102174586Y-51881111D01*
X102072262Y-51727972D01*
X101942028Y-51597738D01*
X101788889Y-51495414D01*
X101618729Y-51424932D01*
X101438089Y-51389000D01*
X101253911Y-51389000D01*
X101073271Y-51424932D01*
X100903111Y-51495414D01*
X100749972Y-51597738D01*
X100619738Y-51727972D01*
X100517414Y-51881111D01*
X100446932Y-52051271D01*
X100411000Y-52231911D01*
X100411000Y-52416089D01*
X100446932Y-52596729D01*
X100517414Y-52766889D01*
X100619738Y-52920028D01*
X100749972Y-53050262D01*
X100903111Y-53152586D01*
X101073271Y-53223068D01*
X101194352Y-53247153D01*
X101431992Y-53484793D01*
X101364729Y-53456932D01*
X101184089Y-53421000D01*
X100999911Y-53421000D01*
X100819271Y-53456932D01*
X100649111Y-53527414D01*
X100546465Y-53596000D01*
X99083322Y-53596000D01*
X99045999Y-53592324D01*
X99008676Y-53596000D01*
X99008667Y-53596000D01*
X98897014Y-53606997D01*
X98753753Y-53650454D01*
X98621724Y-53721026D01*
X98505999Y-53815999D01*
X98482201Y-53844997D01*
X97640000Y-54687198D01*
X97640000Y-49536833D01*
X97645007Y-49485998D01*
X97631217Y-49345986D01*
X97625024Y-49283103D01*
X97565841Y-49088005D01*
X97483509Y-48933972D01*
X97469734Y-48908200D01*
X97372803Y-48790090D01*
X97340396Y-48750602D01*
X97300908Y-48718195D01*
X90530365Y-41947653D01*
X90575000Y-41723260D01*
X90575000Y-41430740D01*
X90517932Y-41143842D01*
X90405990Y-40873589D01*
X90243475Y-40630368D01*
X90036632Y-40423525D01*
X89862240Y-40307000D01*
X90036632Y-40190475D01*
X90243475Y-39983632D01*
X90405990Y-39740411D01*
X90517932Y-39470158D01*
X90575000Y-39183260D01*
X90575000Y-38890740D01*
X90517932Y-38603842D01*
X90405990Y-38333589D01*
X90243475Y-38090368D01*
X90111620Y-37958513D01*
X90184180Y-37936502D01*
X90294494Y-37877537D01*
X90391185Y-37798185D01*
X90470537Y-37701494D01*
X90529502Y-37591180D01*
X90565812Y-37471482D01*
X90578072Y-37347000D01*
X90578072Y-35647000D01*
X90565812Y-35522518D01*
X90529502Y-35402820D01*
X90470537Y-35292506D01*
X90391185Y-35195815D01*
X90294494Y-35116463D01*
X90184180Y-35057498D01*
X90064482Y-35021188D01*
X89940000Y-35008928D01*
X88240000Y-35008928D01*
X88115518Y-35021188D01*
X87995820Y-35057498D01*
X87885506Y-35116463D01*
X87788815Y-35195815D01*
X87709463Y-35292506D01*
X87650498Y-35402820D01*
X87614188Y-35522518D01*
X87601928Y-35647000D01*
X85750000Y-35647000D01*
X85750000Y-26318392D01*
X85822437Y-25506751D01*
X86029672Y-24749226D01*
X86367777Y-24040375D01*
X86826067Y-23402596D01*
X87390055Y-22856054D01*
X88041913Y-22418023D01*
X88761038Y-22102349D01*
X89529768Y-21917794D01*
X90194207Y-21869000D01*
X94589643Y-21869000D01*
X94483489Y-22067599D01*
G37*
G04 #@! TD.AperFunction*
D18*
X101483489Y-22067600D02*
X101412870Y-22300399D01*
X101395000Y-22481836D01*
X101395000Y-23303165D01*
X101412870Y-23484602D01*
X101483489Y-23717401D01*
X101598168Y-23931949D01*
X101752499Y-24120002D01*
X101929769Y-24265484D01*
X101763948Y-24232500D01*
X101496052Y-24232500D01*
X101248631Y-24281715D01*
X101199294Y-24162603D01*
X101096970Y-24009464D01*
X100966736Y-23879230D01*
X100813597Y-23776906D01*
X100643437Y-23706424D01*
X100462797Y-23670492D01*
X100278619Y-23670492D01*
X100097979Y-23706424D01*
X99927819Y-23776906D01*
X99774680Y-23879230D01*
X99644446Y-24009464D01*
X99542122Y-24162603D01*
X99478055Y-24317277D01*
X97970413Y-25824919D01*
X97990000Y-25726448D01*
X97990000Y-25458552D01*
X97937736Y-25195803D01*
X97835216Y-24948299D01*
X97686381Y-24725551D01*
X97496949Y-24536119D01*
X97274201Y-24387284D01*
X97026697Y-24284764D01*
X96763948Y-24232500D01*
X96496052Y-24232500D01*
X96330231Y-24265484D01*
X96507502Y-24120002D01*
X96661833Y-23931949D01*
X96776511Y-23717401D01*
X96847130Y-23484602D01*
X96865000Y-23303165D01*
X96865000Y-22481836D01*
X96847130Y-22300399D01*
X96776511Y-22067599D01*
X96670358Y-21869000D01*
X101589643Y-21869000D01*
X101483489Y-22067600D01*
G04 #@! TA.AperFunction,Conductor*
D19*
G36*
X101483489Y-22067600D02*
G01*
X101412870Y-22300399D01*
X101395000Y-22481836D01*
X101395000Y-23303165D01*
X101412870Y-23484602D01*
X101483489Y-23717401D01*
X101598168Y-23931949D01*
X101752499Y-24120002D01*
X101929769Y-24265484D01*
X101763948Y-24232500D01*
X101496052Y-24232500D01*
X101248631Y-24281715D01*
X101199294Y-24162603D01*
X101096970Y-24009464D01*
X100966736Y-23879230D01*
X100813597Y-23776906D01*
X100643437Y-23706424D01*
X100462797Y-23670492D01*
X100278619Y-23670492D01*
X100097979Y-23706424D01*
X99927819Y-23776906D01*
X99774680Y-23879230D01*
X99644446Y-24009464D01*
X99542122Y-24162603D01*
X99478055Y-24317277D01*
X97970413Y-25824919D01*
X97990000Y-25726448D01*
X97990000Y-25458552D01*
X97937736Y-25195803D01*
X97835216Y-24948299D01*
X97686381Y-24725551D01*
X97496949Y-24536119D01*
X97274201Y-24387284D01*
X97026697Y-24284764D01*
X96763948Y-24232500D01*
X96496052Y-24232500D01*
X96330231Y-24265484D01*
X96507502Y-24120002D01*
X96661833Y-23931949D01*
X96776511Y-23717401D01*
X96847130Y-23484602D01*
X96865000Y-23303165D01*
X96865000Y-22481836D01*
X96847130Y-22300399D01*
X96776511Y-22067599D01*
X96670358Y-21869000D01*
X101589643Y-21869000D01*
X101483489Y-22067600D01*
G37*
G04 #@! TD.AperFunction*
G04 #@! TD*
M02*
