G04 #@! TF.GenerationSoftware,KiCad,Pcbnew,(5.1.9)-1*
G04 #@! TF.CreationDate,2021-03-27T20:38:15-07:00*
G04 #@! TF.ProjectId,attiny_arduino_serial,61747469-6e79-45f6-9172-6475696e6f5f,rev?*
G04 #@! TF.SameCoordinates,Original*
G04 #@! TF.FileFunction,Legend,Bot*
G04 #@! TF.FilePolarity,Positive*
%FSLAX46Y46*%
G04 Gerber Fmt 4.6, Leading zero omitted, Abs format (unit mm)*
G04 Created by KiCad (PCBNEW (5.1.9)-1) date 2021-03-27 20:38:15*
%MOMM*%
%LPD*%
G01*
G04 APERTURE LIST*
%ADD10C,0.130000*%
%ADD11C,0.150000*%
%ADD12C,0.100000*%
G04 APERTURE END LIST*
D10*
X87688000Y-25098857D02*
X87645142Y-25013142D01*
X87645142Y-24884571D01*
X87688000Y-24756000D01*
X87773714Y-24670285D01*
X87859428Y-24627428D01*
X88030857Y-24584571D01*
X88159428Y-24584571D01*
X88330857Y-24627428D01*
X88416571Y-24670285D01*
X88502285Y-24756000D01*
X88545142Y-24884571D01*
X88545142Y-24970285D01*
X88502285Y-25098857D01*
X88459428Y-25141714D01*
X88159428Y-25141714D01*
X88159428Y-24970285D01*
X88545142Y-25913142D02*
X88073714Y-25913142D01*
X87988000Y-25870285D01*
X87945142Y-25784571D01*
X87945142Y-25613142D01*
X87988000Y-25527428D01*
X88502285Y-25913142D02*
X88545142Y-25827428D01*
X88545142Y-25613142D01*
X88502285Y-25527428D01*
X88416571Y-25484571D01*
X88330857Y-25484571D01*
X88245142Y-25527428D01*
X88202285Y-25613142D01*
X88202285Y-25827428D01*
X88159428Y-25913142D01*
X88545142Y-26341714D02*
X87945142Y-26341714D01*
X88116571Y-26341714D02*
X88030857Y-26384571D01*
X87988000Y-26427428D01*
X87945142Y-26513142D01*
X87945142Y-26598857D01*
X88545142Y-26898857D02*
X87645142Y-26898857D01*
X87988000Y-26898857D02*
X87945142Y-26984571D01*
X87945142Y-27156000D01*
X87988000Y-27241714D01*
X88030857Y-27284571D01*
X88116571Y-27327428D01*
X88373714Y-27327428D01*
X88459428Y-27284571D01*
X88502285Y-27241714D01*
X88545142Y-27156000D01*
X88545142Y-26984571D01*
X88502285Y-26898857D01*
X88545142Y-28098857D02*
X87645142Y-28098857D01*
X88502285Y-28098857D02*
X88545142Y-28013142D01*
X88545142Y-27841714D01*
X88502285Y-27756000D01*
X88459428Y-27713142D01*
X88373714Y-27670285D01*
X88116571Y-27670285D01*
X88030857Y-27713142D01*
X87988000Y-27756000D01*
X87945142Y-27841714D01*
X87945142Y-28013142D01*
X87988000Y-28098857D01*
X87945142Y-28913142D02*
X88545142Y-28913142D01*
X87945142Y-28527428D02*
X88416571Y-28527428D01*
X88502285Y-28570285D01*
X88545142Y-28656000D01*
X88545142Y-28784571D01*
X88502285Y-28870285D01*
X88459428Y-28913142D01*
X88545142Y-29341714D02*
X87945142Y-29341714D01*
X87645142Y-29341714D02*
X87688000Y-29298857D01*
X87730857Y-29341714D01*
X87688000Y-29384571D01*
X87645142Y-29341714D01*
X87730857Y-29341714D01*
X87945142Y-29770285D02*
X88545142Y-29770285D01*
X88030857Y-29770285D02*
X87988000Y-29813142D01*
X87945142Y-29898857D01*
X87945142Y-30027428D01*
X87988000Y-30113142D01*
X88073714Y-30156000D01*
X88545142Y-30156000D01*
X88545142Y-30713142D02*
X88502285Y-30627428D01*
X88459428Y-30584571D01*
X88373714Y-30541714D01*
X88116571Y-30541714D01*
X88030857Y-30584571D01*
X87988000Y-30627428D01*
X87945142Y-30713142D01*
X87945142Y-30841714D01*
X87988000Y-30927428D01*
X88030857Y-30970285D01*
X88116571Y-31013142D01*
X88373714Y-31013142D01*
X88459428Y-30970285D01*
X88502285Y-30927428D01*
X88545142Y-30841714D01*
X88545142Y-30713142D01*
X87645142Y-31956000D02*
X88545142Y-32256000D01*
X87645142Y-32556000D01*
X87730857Y-32813142D02*
X87688000Y-32856000D01*
X87645142Y-32941714D01*
X87645142Y-33156000D01*
X87688000Y-33241714D01*
X87730857Y-33284571D01*
X87816571Y-33327428D01*
X87902285Y-33327428D01*
X88030857Y-33284571D01*
X88545142Y-32770285D01*
X88545142Y-33327428D01*
D11*
X103631904Y-58682000D02*
X103727142Y-58634380D01*
X103870000Y-58634380D01*
X104012857Y-58682000D01*
X104108095Y-58777238D01*
X104155714Y-58872476D01*
X104203333Y-59062952D01*
X104203333Y-59205809D01*
X104155714Y-59396285D01*
X104108095Y-59491523D01*
X104012857Y-59586761D01*
X103870000Y-59634380D01*
X103774761Y-59634380D01*
X103631904Y-59586761D01*
X103584285Y-59539142D01*
X103584285Y-59205809D01*
X103774761Y-59205809D01*
X103155714Y-59634380D02*
X103155714Y-58634380D01*
X102584285Y-59634380D01*
X102584285Y-58634380D01*
X102108095Y-59634380D02*
X102108095Y-58634380D01*
X101870000Y-58634380D01*
X101727142Y-58682000D01*
X101631904Y-58777238D01*
X101584285Y-58872476D01*
X101536666Y-59062952D01*
X101536666Y-59205809D01*
X101584285Y-59396285D01*
X101631904Y-59491523D01*
X101727142Y-59586761D01*
X101870000Y-59634380D01*
X102108095Y-59634380D01*
X99692619Y-59634380D02*
X100025952Y-59158190D01*
X100264047Y-59634380D02*
X100264047Y-58634380D01*
X99883095Y-58634380D01*
X99787857Y-58682000D01*
X99740238Y-58729619D01*
X99692619Y-58824857D01*
X99692619Y-58967714D01*
X99740238Y-59062952D01*
X99787857Y-59110571D01*
X99883095Y-59158190D01*
X100264047Y-59158190D01*
X99311666Y-59586761D02*
X99168809Y-59634380D01*
X98930714Y-59634380D01*
X98835476Y-59586761D01*
X98787857Y-59539142D01*
X98740238Y-59443904D01*
X98740238Y-59348666D01*
X98787857Y-59253428D01*
X98835476Y-59205809D01*
X98930714Y-59158190D01*
X99121190Y-59110571D01*
X99216428Y-59062952D01*
X99264047Y-59015333D01*
X99311666Y-58920095D01*
X99311666Y-58824857D01*
X99264047Y-58729619D01*
X99216428Y-58682000D01*
X99121190Y-58634380D01*
X98883095Y-58634380D01*
X98740238Y-58682000D01*
X98454523Y-58634380D02*
X97883095Y-58634380D01*
X98168809Y-59634380D02*
X98168809Y-58634380D01*
X95948476Y-58634380D02*
X96424666Y-58634380D01*
X96472285Y-59110571D01*
X96424666Y-59062952D01*
X96329428Y-59015333D01*
X96091333Y-59015333D01*
X95996095Y-59062952D01*
X95948476Y-59110571D01*
X95900857Y-59205809D01*
X95900857Y-59443904D01*
X95948476Y-59539142D01*
X95996095Y-59586761D01*
X96091333Y-59634380D01*
X96329428Y-59634380D01*
X96424666Y-59586761D01*
X96472285Y-59539142D01*
X95615142Y-58634380D02*
X95281809Y-59634380D01*
X94948476Y-58634380D01*
X111696476Y-44501880D02*
X112267904Y-44501880D01*
X111982190Y-44501880D02*
X111982190Y-43501880D01*
X112077428Y-43644738D01*
X112172666Y-43739976D01*
X112267904Y-43787595D01*
X111077428Y-43501880D02*
X110982190Y-43501880D01*
X110886952Y-43549500D01*
X110839333Y-43597119D01*
X110791714Y-43692357D01*
X110744095Y-43882833D01*
X110744095Y-44120928D01*
X110791714Y-44311404D01*
X110839333Y-44406642D01*
X110886952Y-44454261D01*
X110982190Y-44501880D01*
X111077428Y-44501880D01*
X111172666Y-44454261D01*
X111220285Y-44406642D01*
X111267904Y-44311404D01*
X111315523Y-44120928D01*
X111315523Y-43882833D01*
X111267904Y-43692357D01*
X111220285Y-43597119D01*
X111172666Y-43549500D01*
X111077428Y-43501880D01*
X111442476Y-47201880D02*
X111252000Y-47201880D01*
X111156761Y-47154261D01*
X111109142Y-47106642D01*
X111013904Y-46963785D01*
X110966285Y-46773309D01*
X110966285Y-46392357D01*
X111013904Y-46297119D01*
X111061523Y-46249500D01*
X111156761Y-46201880D01*
X111347238Y-46201880D01*
X111442476Y-46249500D01*
X111490095Y-46297119D01*
X111537714Y-46392357D01*
X111537714Y-46630452D01*
X111490095Y-46725690D01*
X111442476Y-46773309D01*
X111347238Y-46820928D01*
X111156761Y-46820928D01*
X111061523Y-46773309D01*
X111013904Y-46725690D01*
X110966285Y-46630452D01*
X111347238Y-49330452D02*
X111442476Y-49282833D01*
X111490095Y-49235214D01*
X111537714Y-49139976D01*
X111537714Y-49092357D01*
X111490095Y-48997119D01*
X111442476Y-48949500D01*
X111347238Y-48901880D01*
X111156761Y-48901880D01*
X111061523Y-48949500D01*
X111013904Y-48997119D01*
X110966285Y-49092357D01*
X110966285Y-49139976D01*
X111013904Y-49235214D01*
X111061523Y-49282833D01*
X111156761Y-49330452D01*
X111347238Y-49330452D01*
X111442476Y-49378071D01*
X111490095Y-49425690D01*
X111537714Y-49520928D01*
X111537714Y-49711404D01*
X111490095Y-49806642D01*
X111442476Y-49854261D01*
X111347238Y-49901880D01*
X111156761Y-49901880D01*
X111061523Y-49854261D01*
X111013904Y-49806642D01*
X110966285Y-49711404D01*
X110966285Y-49520928D01*
X111013904Y-49425690D01*
X111061523Y-49378071D01*
X111156761Y-49330452D01*
D12*
X111779809Y-52003190D02*
X111946476Y-51765095D01*
X112065523Y-52003190D02*
X112065523Y-51503190D01*
X111875047Y-51503190D01*
X111827428Y-51527000D01*
X111803619Y-51550809D01*
X111779809Y-51598428D01*
X111779809Y-51669857D01*
X111803619Y-51717476D01*
X111827428Y-51741285D01*
X111875047Y-51765095D01*
X112065523Y-51765095D01*
X111589333Y-51979380D02*
X111517904Y-52003190D01*
X111398857Y-52003190D01*
X111351238Y-51979380D01*
X111327428Y-51955571D01*
X111303619Y-51907952D01*
X111303619Y-51860333D01*
X111327428Y-51812714D01*
X111351238Y-51788904D01*
X111398857Y-51765095D01*
X111494095Y-51741285D01*
X111541714Y-51717476D01*
X111565523Y-51693666D01*
X111589333Y-51646047D01*
X111589333Y-51598428D01*
X111565523Y-51550809D01*
X111541714Y-51527000D01*
X111494095Y-51503190D01*
X111375047Y-51503190D01*
X111303619Y-51527000D01*
X111160761Y-51503190D02*
X110875047Y-51503190D01*
X111017904Y-52003190D02*
X111017904Y-51503190D01*
D11*
X111585333Y-53501880D02*
X110918666Y-53501880D01*
X111347238Y-54501880D01*
X111061523Y-56201880D02*
X111252000Y-56201880D01*
X111347238Y-56249500D01*
X111394857Y-56297119D01*
X111490095Y-56439976D01*
X111537714Y-56630452D01*
X111537714Y-57011404D01*
X111490095Y-57106642D01*
X111442476Y-57154261D01*
X111347238Y-57201880D01*
X111156761Y-57201880D01*
X111061523Y-57154261D01*
X111013904Y-57106642D01*
X110966285Y-57011404D01*
X110966285Y-56773309D01*
X111013904Y-56678071D01*
X111061523Y-56630452D01*
X111156761Y-56582833D01*
X111347238Y-56582833D01*
X111442476Y-56630452D01*
X111490095Y-56678071D01*
X111537714Y-56773309D01*
D12*
X111886952Y-41406000D02*
X111934571Y-41382190D01*
X112006000Y-41382190D01*
X112077428Y-41406000D01*
X112125047Y-41453619D01*
X112148857Y-41501238D01*
X112172666Y-41596476D01*
X112172666Y-41667904D01*
X112148857Y-41763142D01*
X112125047Y-41810761D01*
X112077428Y-41858380D01*
X112006000Y-41882190D01*
X111958380Y-41882190D01*
X111886952Y-41858380D01*
X111863142Y-41834571D01*
X111863142Y-41667904D01*
X111958380Y-41667904D01*
X111648857Y-41882190D02*
X111648857Y-41382190D01*
X111363142Y-41882190D01*
X111363142Y-41382190D01*
X111125047Y-41882190D02*
X111125047Y-41382190D01*
X111006000Y-41382190D01*
X110934571Y-41406000D01*
X110886952Y-41453619D01*
X110863142Y-41501238D01*
X110839333Y-41596476D01*
X110839333Y-41667904D01*
X110863142Y-41763142D01*
X110886952Y-41810761D01*
X110934571Y-41858380D01*
X111006000Y-41882190D01*
X111125047Y-41882190D01*
X111886952Y-38866000D02*
X111934571Y-38842190D01*
X112006000Y-38842190D01*
X112077428Y-38866000D01*
X112125047Y-38913619D01*
X112148857Y-38961238D01*
X112172666Y-39056476D01*
X112172666Y-39127904D01*
X112148857Y-39223142D01*
X112125047Y-39270761D01*
X112077428Y-39318380D01*
X112006000Y-39342190D01*
X111958380Y-39342190D01*
X111886952Y-39318380D01*
X111863142Y-39294571D01*
X111863142Y-39127904D01*
X111958380Y-39127904D01*
X111648857Y-39342190D02*
X111648857Y-38842190D01*
X111363142Y-39342190D01*
X111363142Y-38842190D01*
X111125047Y-39342190D02*
X111125047Y-38842190D01*
X111006000Y-38842190D01*
X110934571Y-38866000D01*
X110886952Y-38913619D01*
X110863142Y-38961238D01*
X110839333Y-39056476D01*
X110839333Y-39127904D01*
X110863142Y-39223142D01*
X110886952Y-39270761D01*
X110934571Y-39318380D01*
X111006000Y-39342190D01*
X111125047Y-39342190D01*
X111886952Y-36326000D02*
X111934571Y-36302190D01*
X112006000Y-36302190D01*
X112077428Y-36326000D01*
X112125047Y-36373619D01*
X112148857Y-36421238D01*
X112172666Y-36516476D01*
X112172666Y-36587904D01*
X112148857Y-36683142D01*
X112125047Y-36730761D01*
X112077428Y-36778380D01*
X112006000Y-36802190D01*
X111958380Y-36802190D01*
X111886952Y-36778380D01*
X111863142Y-36754571D01*
X111863142Y-36587904D01*
X111958380Y-36587904D01*
X111648857Y-36802190D02*
X111648857Y-36302190D01*
X111363142Y-36802190D01*
X111363142Y-36302190D01*
X111125047Y-36802190D02*
X111125047Y-36302190D01*
X111006000Y-36302190D01*
X110934571Y-36326000D01*
X110886952Y-36373619D01*
X110863142Y-36421238D01*
X110839333Y-36516476D01*
X110839333Y-36587904D01*
X110863142Y-36683142D01*
X110886952Y-36730761D01*
X110934571Y-36778380D01*
X111006000Y-36802190D01*
X111125047Y-36802190D01*
D11*
X86375904Y-56201880D02*
X86852095Y-56201880D01*
X86899714Y-56678071D01*
X86852095Y-56630452D01*
X86756857Y-56582833D01*
X86518761Y-56582833D01*
X86423523Y-56630452D01*
X86375904Y-56678071D01*
X86328285Y-56773309D01*
X86328285Y-57011404D01*
X86375904Y-57106642D01*
X86423523Y-57154261D01*
X86518761Y-57201880D01*
X86756857Y-57201880D01*
X86852095Y-57154261D01*
X86899714Y-57106642D01*
X86423523Y-53995214D02*
X86423523Y-54661880D01*
X86661619Y-53614261D02*
X86899714Y-54328547D01*
X86280666Y-54328547D01*
X86947333Y-51121880D02*
X86328285Y-51121880D01*
X86661619Y-51502833D01*
X86518761Y-51502833D01*
X86423523Y-51550452D01*
X86375904Y-51598071D01*
X86328285Y-51693309D01*
X86328285Y-51931404D01*
X86375904Y-52026642D01*
X86423523Y-52074261D01*
X86518761Y-52121880D01*
X86804476Y-52121880D01*
X86899714Y-52074261D01*
X86947333Y-52026642D01*
X86899714Y-48677119D02*
X86852095Y-48629500D01*
X86756857Y-48581880D01*
X86518761Y-48581880D01*
X86423523Y-48629500D01*
X86375904Y-48677119D01*
X86328285Y-48772357D01*
X86328285Y-48867595D01*
X86375904Y-49010452D01*
X86947333Y-49581880D01*
X86328285Y-49581880D01*
X86328285Y-47041880D02*
X86899714Y-47041880D01*
X86614000Y-47041880D02*
X86614000Y-46041880D01*
X86709238Y-46184738D01*
X86804476Y-46279976D01*
X86899714Y-46327595D01*
X86566380Y-44732119D02*
X86661619Y-44732119D01*
X86756857Y-44684500D01*
X86804476Y-44636880D01*
X86852095Y-44541642D01*
X86899714Y-44351166D01*
X86899714Y-44113071D01*
X86852095Y-43922595D01*
X86804476Y-43827357D01*
X86756857Y-43779738D01*
X86661619Y-43732119D01*
X86566380Y-43732119D01*
X86471142Y-43779738D01*
X86423523Y-43827357D01*
X86375904Y-43922595D01*
X86328285Y-44113071D01*
X86328285Y-44351166D01*
X86375904Y-44541642D01*
X86423523Y-44636880D01*
X86471142Y-44684500D01*
X86566380Y-44732119D01*
X86804476Y-40961880D02*
X87280666Y-40961880D01*
X87328285Y-41438071D01*
X87280666Y-41390452D01*
X87185428Y-41342833D01*
X86947333Y-41342833D01*
X86852095Y-41390452D01*
X86804476Y-41438071D01*
X86756857Y-41533309D01*
X86756857Y-41771404D01*
X86804476Y-41866642D01*
X86852095Y-41914261D01*
X86947333Y-41961880D01*
X87185428Y-41961880D01*
X87280666Y-41914261D01*
X87328285Y-41866642D01*
X86471142Y-40961880D02*
X86137809Y-41961880D01*
X85804476Y-40961880D01*
X86804476Y-38421880D02*
X87280666Y-38421880D01*
X87328285Y-38898071D01*
X87280666Y-38850452D01*
X87185428Y-38802833D01*
X86947333Y-38802833D01*
X86852095Y-38850452D01*
X86804476Y-38898071D01*
X86756857Y-38993309D01*
X86756857Y-39231404D01*
X86804476Y-39326642D01*
X86852095Y-39374261D01*
X86947333Y-39421880D01*
X87185428Y-39421880D01*
X87280666Y-39374261D01*
X87328285Y-39326642D01*
X86471142Y-38421880D02*
X86137809Y-39421880D01*
X85804476Y-38421880D01*
X86804476Y-35881880D02*
X87280666Y-35881880D01*
X87328285Y-36358071D01*
X87280666Y-36310452D01*
X87185428Y-36262833D01*
X86947333Y-36262833D01*
X86852095Y-36310452D01*
X86804476Y-36358071D01*
X86756857Y-36453309D01*
X86756857Y-36691404D01*
X86804476Y-36786642D01*
X86852095Y-36834261D01*
X86947333Y-36881880D01*
X87185428Y-36881880D01*
X87280666Y-36834261D01*
X87328285Y-36786642D01*
X86471142Y-35881880D02*
X86137809Y-36881880D01*
X85804476Y-35881880D01*
M02*
